<svg width="268mm" height="116mm" version="1.1" viewBox="0 0 268 116" xmlns="http://www.w3.org/2000/svg">
 <g transform="translate(-16.4 -40.2)" fill="#b60000" stroke-width=".0847">
  <path d="m164 100c-0.4-0.197-0.849-0.733-1.15-1.37-0.26-0.55-0.265-0.585-0.257-1.75 9e-3 -1.26 6e-3 -1.24 0.614-2.88 0.328-0.881 1.03-2.44 1.35-2.96 0.137-0.232 0.429-0.667 0.648-0.966 0.221-0.299 0.55-0.802 0.733-1.11 0.402-0.688 2.11-2.44 3.31-3.39 0.455-0.362 0.826-0.693 0.826-0.736 0-0.17 0.717-0.516 1.58-0.767 0.765-0.221 0.995-0.331 1.43-0.677 0.286-0.228 0.561-0.413 0.614-0.413 0.0511 0 0.45-0.114 0.886-0.254 0.437-0.14 1.23-0.349 1.76-0.466 1.52-0.333 1.52-0.328 2.1-1.47 0.275-0.54 0.527-1.12 0.558-1.28 0.0318-0.161 0.139-0.429 0.235-0.593 0.622-1.06 0.831-1.54 0.778-1.82-0.0558-0.299 0.163-0.844 0.426-1.06 0.103-0.086 0.125-0.194 0.0849-0.431-0.0392-0.232-7e-3 -0.407 0.122-0.659 0.17-0.333 0.227-0.603 0.126-0.603-0.0273 0-0.418 0.229-0.868 0.508-0.823 0.511-1 0.651-2.09 1.64-0.63 0.572-1.34 1-1.53 0.926-0.0714-0.0275-0.175 0.0614-0.267 0.228-0.275 0.503-0.521 0.736-1.06 0.992-0.294 0.14-0.585 0.318-0.648 0.392-0.063 0.0759-0.234 0.139-0.378 0.139-0.368 0.0019-0.487 0.0979-0.643 0.521-0.148 0.402-0.392 0.566-0.942 0.64-0.22 0.0294-0.37 0.11-0.46 0.247-0.0733 0.112-0.365 0.318-0.651 0.455-0.286 0.138-0.579 0.307-0.656 0.376-0.0754 0.0683-0.355 0.221-0.622 0.339-0.267 0.118-0.63 0.312-0.81 0.429-0.482 0.318-1.05 0.357-1.76 0.124-0.32-0.105-0.688-0.244-0.815-0.31-0.323-0.162-0.646-0.844-0.831-1.75-0.0849-0.415-0.177-0.778-0.205-0.804-0.0275-0.0275-0.172 5.29e-4 -0.323 0.0624-0.701 0.291-1.12 0.189-1.21-0.291-0.0304-0.162-0.0868-0.296-0.125-0.296-0.0384 0-0.178 0.162-0.31 0.36-0.215 0.32-0.28 0.362-0.614 0.386-0.26 0.0187-0.471 0.104-0.696 0.283-0.376 0.299-1.14 0.452-2.23 0.452-0.598 0-0.746-0.0336-1.25-0.28-0.598-0.294-1.51-1.07-1.71-1.45-0.0616-0.121-0.14-0.386-0.174-0.593-0.0341-0.206-0.153-0.64-0.264-0.968-0.115-0.339-0.202-0.791-0.202-1.06 0-0.548-0.296-1.88-0.468-2.1-0.117-0.152-0.128-0.15-0.294 0.054-0.0955 0.116-0.234 0.355-0.307 0.532-0.0915 0.219-0.278 0.415-0.593 0.624-0.273 0.181-0.545 0.452-0.672 0.672-0.119 0.202-0.442 0.577-0.72 0.833-0.288 0.267-0.572 0.622-0.659 0.831-0.211 0.492-0.378 0.624-0.64 0.505-0.252-0.115-0.312-0.0516-0.55 0.585-0.119 0.318-0.245 0.503-0.384 0.566-0.114 0.0519-0.286 0.248-0.381 0.437-0.111 0.219-0.273 0.384-0.447 0.455-0.331 0.139-0.452 0.275-0.781 0.892-0.16 0.299-0.318 0.484-0.423 0.5-0.447 0.0659-0.558 0.125-0.738 0.389-0.265 0.392-1.27 1.06-1.87 1.25-0.601 0.188-1.48 0.199-2.06 0.0267-0.984-0.291-1.92-1.67-2.18-3.23-0.177-1.05-0.169-1.42 0.0373-1.61 0.143-0.129 0.16-0.222 0.116-0.635-0.0638-0.611 0.11-1.17 0.561-1.8 0.18-0.252 0.482-0.788 0.667-1.19 0.622-1.35 1.59-2.99 2.09-3.52 1.62-1.78 3.6-3.55 3.94-3.55 0.0675 0 0.341-0.169 0.606-0.376 0.267-0.206 0.624-0.421 0.799-0.476 0.173-0.0558 0.471-0.192 0.661-0.302 0.19-0.11 0.442-0.2 0.561-0.2s0.344-0.0542 0.503-0.12c0.226-0.0945 0.362-0.101 0.635-0.0278 0.31 0.0823 0.373 0.0722 0.579-0.0913 0.712-0.561 2.02 0.197 2.41 1.39 0.203 0.624 0.426 0.939 0.595 0.836 0.0564-0.0349 0.197-0.275 0.312-0.534 0.115-0.26 0.315-0.606 0.444-0.773 0.407-0.519 0.736-1.2 1.06-2.2 0.349-1.07 0.59-1.61 1.23-2.75 0.234-0.418 0.489-0.963 0.569-1.21 0.0791-0.247 0.27-0.598 0.426-0.778 0.155-0.181 0.339-0.489 0.407-0.683 0.0688-0.195 0.315-0.664 0.548-1.04 0.232-0.378 0.482-0.865 0.556-1.08 0.152-0.447 0.331-0.635 0.831-0.876 0.344-0.166 0.352-0.179 0.355-0.603 4e-3 -0.471 0.0868-0.614 0.9-1.56 0.223-0.261 0.865-1.17 1.43-2.02 1.08-1.64 2.2-2.94 2.8-3.28 0.616-0.344 1.26-0.2 1.91 0.429 0.751 0.733 0.833 1.05 0.545 2.15-0.0968 0.365-0.214 0.818-0.26 1.01s-0.224 0.683-0.394 1.1c-0.171 0.418-0.619 1.52-0.997 2.45-0.437 1.07-0.762 1.75-0.889 1.86-0.112 0.0963-0.333 0.431-0.489 0.743-0.158 0.312-0.397 0.693-0.529 0.847-0.155 0.178-0.26 0.413-0.291 0.648-0.0347 0.267-0.118 0.431-0.302 0.593-0.151 0.133-0.312 0.405-0.397 0.672-0.0783 0.246-0.27 0.64-0.429 0.873-0.157 0.234-0.405 0.648-0.55 0.921-0.183 0.344-0.344 0.529-0.521 0.601-0.294 0.122-0.489 0.508-0.489 0.968 0 0.344-0.304 0.72-0.587 0.72-0.207 0-0.381 0.256-0.511 0.743-0.105 0.4-0.4 0.638-0.894 0.733-0.431 0.0807-0.511 0.23-0.392 0.741 0.111 0.479 0.103 0.495-0.669 1.39-0.184 0.213-0.336 0.455-0.336 0.54 0 0.0847-0.114 0.32-0.252 0.524-0.331 0.489-0.447 0.91-0.767 2.78-0.307 1.8-0.381 3.15-0.201 3.65 0.0659 0.187 0.12 0.561 0.12 0.831s0.0231 0.55 0.0513 0.624c0.0752 0.196 0.407 0.164 0.683-0.0667 0.132-0.11 0.505-0.336 0.831-0.5 0.754-0.378 1.56-0.974 1.87-1.37 0.13-0.17 0.373-0.378 0.54-0.466 0.167-0.0855 0.4-0.259 0.516-0.386 0.116-0.126 0.492-0.439 0.836-0.693 0.749-0.556 1.28-1.07 1.56-1.53 0.25-0.394 0.521-0.659 1.15-1.12 0.728-0.532 1.21-0.426 1.02 0.227-0.236 0.849-0.0336 0.958 0.68 0.365 0.746-0.622 2.88-2.04 3.68-2.44 1.51-0.759 3.15-1.29 3.97-1.29 0.458 0 0.619-0.0516 1.36-0.429 0.987-0.503 1.83-0.757 2.52-0.757 0.781 0 0.963 0.177 1.16 1.13 0.111 0.537 0.28 0.691 0.471 0.418 0.179-0.255 0.913-0.698 1.16-0.698 0.519 0 0.82 0.508 1 1.68 0.199 1.3 0.01 2.1-0.751 3.18-0.195 0.278-0.413 0.717-0.484 0.974-0.553 1.99-1.49 4.42-1.87 4.84-0.117 0.13-0.196 0.323-0.196 0.482 0 0.146-0.0746 0.392-0.166 0.548s-0.21 0.489-0.264 0.746c-0.0542 0.255-0.17 0.606-0.257 0.778-0.0873 0.173-0.159 0.331-0.159 0.352 0 0.0203 0.192 0.16 0.426 0.31 0.492 0.315 1.2 1.07 1.4 1.51 0.124 0.261 0.128 0.355 0.0347 0.728-0.17 0.677-0.294 0.847-0.826 1.13-0.654 0.349-1.11 0.421-1.47 0.233-0.606-0.307-1.51-0.632-1.64-0.585-0.0712 0.0272-0.129 0.135-0.129 0.239 0 0.104-0.0783 0.26-0.174 0.347-0.0958 0.0868-0.333 0.463-0.527 0.836-0.384 0.738-0.77 1.23-0.963 1.23-0.237 0-0.527 0.407-0.698 0.984-0.205 0.685-0.365 0.942-0.616 0.979-0.129 0.0189-0.302 0.231-0.579 0.714-0.402 0.701-1.03 1.57-1.32 1.82-0.0871 0.0754-0.27 0.173-0.407 0.217-0.136 0.0437-0.273 0.134-0.304 0.202-0.333 0.725-0.516 0.997-0.913 1.36-0.254 0.232-0.585 0.474-0.736 0.537-0.182 0.0762-0.294 0.193-0.333 0.349-0.0778 0.31-1.07 1.34-1.66 1.72-0.256 0.165-0.63 0.482-0.831 0.704-0.201 0.223-0.601 0.545-0.889 0.717-0.288 0.172-0.714 0.474-0.947 0.669-0.418 0.352-0.91 0.638-1.3 0.759-0.111 0.0344-0.376 0.173-0.587 0.307-0.439 0.278-0.841 0.312-1.26 0.105zm1.83-4.07c0.677-0.273 1.12-0.511 1.43-0.767 0.244-0.206 0.706-0.519 1.03-0.696 0.376-0.206 0.778-0.529 1.12-0.897 0.296-0.318 0.926-0.96 1.4-1.43 0.476-0.468 0.976-1.02 1.11-1.23 0.133-0.21 0.437-0.582 0.677-0.828 0.24-0.246 0.519-0.609 0.619-0.804 0.28-0.55 0.839-1.42 1.14-1.78 0.148-0.177 0.394-0.558 0.545-0.847 0.152-0.288 0.386-0.63 0.524-0.759 0.323-0.302 0.27-0.45-0.154-0.423-0.182 0.0106-0.474-0.0243-0.648-0.0775-0.294-0.0892-0.339-0.0796-0.55 0.119-0.31 0.291-0.587 0.418-1.58 0.738-0.466 0.148-1.06 0.397-1.31 0.55-0.256 0.155-0.561 0.31-0.677 0.344-0.116 0.0349-0.479 0.263-0.804 0.505s-0.714 0.505-0.863 0.582c-0.148 0.0762-0.291 0.211-0.32 0.299-0.115 0.36-0.553 0.857-0.759 0.857-0.141 0-0.259 0.0889-0.381 0.286-0.0974 0.157-0.516 0.606-0.929 0.995-0.611 0.577-0.773 0.781-0.855 1.08-0.0556 0.206-0.212 0.582-0.347 0.836-0.135 0.254-0.247 0.553-0.247 0.664 0 0.111-0.0595 0.344-0.133 0.516-0.198 0.471-0.474 1.89-0.415 2.14 0.0614 0.248 0.193 0.423 0.318 0.423 0.0484 0 0.529-0.177 1.07-0.394zm-19-16c0.134-0.0693 0.444-0.288 0.691-0.487 0.246-0.199 0.638-0.492 0.87-0.651 0.233-0.159 0.767-0.616 1.19-1.02s1.36-1.27 2.1-1.94c0.863-0.783 1.35-1.29 1.39-1.44 0.0288-0.122 0.27-0.468 0.534-0.773 0.265-0.302 0.532-0.646 0.593-0.762 0.0601-0.116 0.384-0.574 0.72-1.02 0.886-1.17 1.42-2.01 1.36-2.12-0.159-0.258-0.476-0.259-1.3-0.0035-0.632 0.195-0.915 0.242-1.24 0.206-0.392-0.0444-0.46-0.0214-1.03 0.349-0.55 0.355-0.648 0.389-0.947 0.339-0.325-0.055-0.341-0.0458-0.635 0.36-0.341 0.476-1.46 1.39-1.81 1.48-0.179 0.0466-0.299 0.181-0.479 0.537-0.132 0.261-0.376 0.577-0.54 0.701-0.587 0.442-0.942 0.836-0.942 1.05 0 0.114-0.147 0.413-0.328 0.667-0.18 0.252-0.355 0.548-0.389 0.654-0.0339 0.108-0.194 0.376-0.357 0.593-0.162 0.218-0.426 0.741-0.587 1.16-0.286 0.741-0.291 0.778-0.205 1.4 0.107 0.781 0.28 0.976 0.791 0.894 0.181-0.0288 0.439-0.109 0.572-0.178zm22.7-0.336c0.339-0.163 0.791-0.429 1.01-0.593 0.349-0.267 0.442-0.296 0.926-0.296 0.471 0 0.579-0.032 0.857-0.254 0.176-0.14 0.37-0.254 0.431-0.254 0.0609 0 0.275-0.169 0.476-0.376 0.2-0.207 0.564-0.476 0.81-0.598 0.245-0.122 0.529-0.333 0.63-0.471 0.101-0.137 0.232-0.249 0.291-0.249 0.059 0 0.226-0.148 0.373-0.331 0.157-0.196 0.415-0.386 0.632-0.471 0.258-0.0987 0.534-0.328 0.931-0.77 0.31-0.347 0.788-0.77 1.07-0.939 0.294-0.181 0.624-0.479 0.796-0.717 0.161-0.224 0.437-0.482 0.614-0.572 0.513-0.261 0.905-1.12 0.569-1.25-0.0717-0.0275-0.323 0.05-0.558 0.172-0.249 0.129-0.566 0.222-0.759 0.222-0.368 0-1.51 0.527-2.03 0.937-0.166 0.13-0.458 0.302-0.651 0.378-0.193 0.0767-0.413 0.235-0.489 0.352-0.16 0.243-0.738 0.532-1.07 0.534-0.169 0.0013-0.431 0.191-1 0.722-0.426 0.397-0.95 0.818-1.17 0.934-0.643 0.347-1.34 0.86-1.53 1.12-0.0958 0.134-0.484 0.508-0.863 0.828-0.569 0.482-0.741 0.685-0.976 1.17-0.365 0.749-0.378 1.06-0.049 1.06 0.0688 0 0.402-0.133 0.741-0.296zm-6.09-17c0.508-0.794 1.04-1.44 1.27-1.56 0.196-0.096 0.36-0.315 1.02-1.36 0.273-0.431 1.29-1.87 1.64-2.3 0.184-0.233 0.471-0.765 0.638-1.18 0.167-0.415 0.415-0.915 0.556-1.11 0.23-0.32 0.25-0.402 0.227-0.937-0.0415-0.963-0.0952-0.91-1.52 1.45-0.336 0.558-0.778 1.37-0.982 1.8-0.304 0.654-0.468 0.881-0.95 1.34-0.325 0.307-0.606 0.651-0.638 0.781-0.0307 0.127-0.126 0.384-0.211 0.569-0.0855 0.186-0.176 0.511-0.201 0.72-0.0389 0.323-0.11 0.439-0.468 0.762-0.423 0.384-0.857 1.11-0.857 1.44 0 0.251 0.125 0.144 0.479-0.41zm-42.1 27.8c-0.169-0.0603-0.439-0.192-0.603-0.294-0.163-0.101-0.394-0.183-0.513-0.183-0.278 0-0.529-0.318-0.601-0.757-0.0519-0.325-0.0807-0.352-0.683-0.63-0.534-0.247-0.823-0.476-1.94-1.55-0.722-0.691-1.6-1.58-1.94-1.98-0.741-0.852-1.3-1.39-1.91-1.84-0.246-0.183-0.585-0.495-0.751-0.691-0.168-0.196-0.577-0.569-0.908-0.828-0.704-0.55-0.807-0.661-1.58-1.69-0.32-0.426-0.746-0.889-0.945-1.03-0.505-0.349-0.741-0.622-0.87-1-0.0942-0.278-0.167-0.344-0.495-0.452-0.455-0.15-0.902-0.55-0.902-0.804 0-0.134-0.106-0.228-0.41-0.365-0.312-0.142-0.706-0.503-1.67-1.53-0.696-0.741-1.35-1.47-1.46-1.61-0.108-0.143-0.238-0.259-0.288-0.259-0.191 0-1.34 1.51-1.34 1.75 0 0.068-0.0725 0.226-0.161 0.349-0.0886 0.125-0.226 0.45-0.304 0.722-0.0791 0.273-0.402 1.08-0.72 1.79-0.624 1.4-0.794 2.03-0.926 3.47-0.104 1.11-0.217 1.32-0.773 1.42-0.212 0.0368-0.572 0.0256-0.839-0.0261-1.24-0.241-1.35-0.333-1.95-1.52-0.221-0.442-0.468-0.931-0.55-1.09-0.143-0.273-0.142-0.318 0.0275-1.14 0.155-0.759 0.288-1.08 1.13-2.75 0.527-1.05 1.19-2.26 1.48-2.7 0.315-0.492 0.59-1.05 0.696-1.4 0.0974-0.325 0.331-0.815 0.516-1.09 0.187-0.275 0.341-0.585 0.341-0.691 0-0.129-0.166-0.336-0.508-0.632-0.28-0.242-0.532-0.532-0.561-0.646-0.0283-0.113-0.213-0.318-0.41-0.452-0.683-0.468-1.15-1.15-1.15-1.67 5.3e-4 -0.378 0.288-0.746 0.947-1.21 0.627-0.442 2.36-1.35 2.57-1.35 0.177 0 1.41-0.511 1.66-0.688 0.123-0.087 0.421-0.204 0.659-0.259 0.561-0.13 0.781-0.357 1.11-1.16 0.146-0.357 0.392-0.86 0.545-1.12 0.27-0.45 0.807-1.61 0.81-1.75 1e-3 -0.0389 0.133-0.275 0.294-0.529 0.16-0.252 0.429-0.87 0.598-1.37 0.252-0.757 0.344-0.937 0.532-1.03 0.153-0.0749 0.217-0.165 0.198-0.278-0.0156-0.0913-0.041-0.376-0.0564-0.632-0.0154-0.256-0.0852-0.661-0.155-0.902-0.135-0.466-0.086-0.934 0.126-1.19 0.344-0.415 1.33-0.489 1.98-0.148 0.971 0.508 1.18 0.704 1.6 1.51 0.386 0.736 0.4 0.781 0.36 1.33-0.0254 0.355-0.102 0.667-0.201 0.826-0.0881 0.139-0.265 0.421-0.392 0.627-0.26 0.421-1.23 3.04-1.31 3.57-0.0529 0.331-0.0521 0.331 0.188 0.273 0.133-0.0333 0.365-0.168 0.513-0.299 0.259-0.228 0.881-0.426 1.34-0.426 0.108 0 0.63-0.133 1.16-0.296 0.529-0.163 1.08-0.296 1.22-0.296 0.14-5.29e-4 0.667-0.113 1.17-0.25 1.15-0.31 2.02-0.407 2.3-0.256 0.165 0.0881 0.228 0.0884 0.333 0.0011 0.0714-0.0593 0.13-0.154 0.13-0.211 0-0.315 0.646-0.497 1.03-0.291 0.139 0.0744 0.208 0.0574 0.362-0.0868 0.209-0.196 0.638-0.344 1-0.344 0.128 0 0.233-0.0368 0.233-0.0818 0-0.138 0.31-0.258 1.11-0.434 0.548-0.119 0.931-0.265 1.33-0.508 0.365-0.221 1.03-0.487 1.92-0.765 0.746-0.233 1.52-0.497 1.71-0.587 0.421-0.191 0.791-0.667 1.04-1.33l0.176-0.471-0.24-0.389c-0.161-0.26-0.328-0.418-0.511-0.476-0.149-0.0487-0.452-0.22-0.675-0.381-0.222-0.161-0.556-0.318-0.743-0.349-0.489-0.0804-1.39-0.405-1.75-0.63-0.169-0.106-0.415-0.191-0.55-0.189-0.134 0.0021-0.503-0.115-0.823-0.259-0.318-0.145-0.68-0.264-0.804-0.264-0.124-2.54e-4 -0.331-0.0558-0.46-0.124-0.171-0.0889-0.386-0.109-0.781-0.0722-0.434 0.0405-0.59 0.0212-0.767-0.095-0.174-0.114-0.394-0.143-0.997-0.135-0.426 6e-3 -1.02-0.0283-1.33-0.0765-0.908-0.144-2.19-0.178-3.1-0.0823-0.841 0.09-0.849 0.0892-1.28-0.143l-0.431-0.234-0.458 0.139c-0.368 0.111-0.704 0.131-1.71 0.0982-0.889-0.0286-1.44-5e-3 -1.91 0.0812-0.357 0.0669-1.31 0.169-2.13 0.227-1.24 0.0876-1.52 0.133-1.71 0.273-0.164 0.121-0.294 0.151-0.466 0.109-0.132-0.032-0.439-0.0667-0.685-0.077-0.407-0.0172-0.466 0.0048-0.691 0.258-0.209 0.237-0.283 0.27-0.511 0.224-0.2-0.04-0.312-0.0106-0.452 0.119-0.103 0.0947-0.439 0.286-0.751 0.426-0.31 0.139-0.627 0.349-0.701 0.463-0.0759 0.116-0.31 0.302-0.519 0.41-0.299 0.157-0.402 0.27-0.476 0.521-0.192 0.638-1.17 1.32-2.01 1.39-1.01 0.0902-1.68-0.336-1.86-1.17-0.145-0.675-3e-3 -1.02 0.709-1.74 0.751-0.754 1.3-1.03 2.96-1.47 0.698-0.186 1.51-0.439 1.81-0.558 0.804-0.331 1.76-0.505 2.08-0.386 0.384 0.139 0.556 0.119 0.778-0.0902 0.137-0.128 0.296-0.183 0.513-0.177 0.174 5e-3 0.64-0.0765 1.03-0.181 0.529-0.14 0.791-0.171 0.995-0.117 0.199 0.0529 0.344 0.0376 0.524-0.0561 0.138-0.0712 0.376-0.129 0.532-0.129 0.155 0 0.556-0.0762 0.892-0.169 0.336-0.0931 0.831-0.17 1.1-0.17 0.267-2.65e-4 1.02-0.112 1.68-0.248 0.656-0.136 1.65-0.291 2.22-0.341 0.886-0.0815 1.06-0.0765 1.28 0.0368 0.323 0.167 0.542 0.165 1.4-0.0121 0.654-0.134 0.736-0.134 1.35 2.64e-4 0.585 0.129 0.677 0.13 0.9 0.0162 0.336-0.174 0.746-0.16 1.12 0.0394 0.252 0.135 0.36 0.15 0.564 0.0788 0.27-0.0942 2.8-0.0582 2.96 0.0423 0.0516 0.0318 0.41 0.0916 0.794 0.133 0.923 0.0987 1.3 0.189 1.75 0.421 0.237 0.122 0.466 0.178 0.63 0.153 0.189-0.0278 0.421 0.0497 0.855 0.288 0.328 0.179 0.704 0.325 0.833 0.325 0.349 0.0019 0.886 0.307 1.03 0.585 0.0693 0.134 0.291 0.349 0.495 0.476 0.331 0.21 0.738 0.77 0.738 1.02 0 0.0484 0.19 0.275 0.423 0.505 0.36 0.355 0.423 0.466 0.423 0.738 0 0.176 0.0762 0.463 0.169 0.638 0.212 0.397 0.225 1.22 0.0352 2.41-0.155 0.974-0.421 1.51-0.913 1.85-0.173 0.117-0.41 0.376-0.529 0.572-0.134 0.225-0.347 0.426-0.569 0.54-0.195 0.0995-0.524 0.31-0.73 0.466-0.206 0.157-0.474 0.31-0.593 0.336-0.12 0.0278-0.849 0.237-1.62 0.463-0.77 0.227-1.51 0.413-1.64 0.413-0.147 0-0.365 0.112-0.582 0.296-0.355 0.302-0.765 0.463-1.19 0.466-0.129 2.54e-4 -0.595 0.0788-1.04 0.175-0.442 0.0958-0.841 0.151-0.889 0.121-0.0987-0.0611-1.29 0.161-1.9 0.355-0.233 0.0736-0.672 0.242-0.976 0.376-0.487 0.212-0.593 0.23-0.881 0.151-0.267-0.0738-0.386-0.0632-0.654 0.0574-0.267 0.121-0.368 0.129-0.548 0.0471-0.191-0.087-0.256-0.0738-0.487 0.0974-0.368 0.273-0.921 0.421-1.35 0.357-0.264-0.0394-0.463-0.0071-0.773 0.126-0.275 0.119-0.5 0.161-0.661 0.125-0.267-0.059-0.513 0.017-1.32 0.413-0.527 0.256-0.545 0.259-0.791 0.118-0.36-0.207-0.463-0.185-0.897 0.198-0.373 0.328-0.407 0.341-0.818 0.291-0.349-0.0426-0.516-0.013-0.905 0.16-0.534 0.238-0.749 0.489-1.05 1.24-0.112 0.275-0.32 0.683-0.46 0.905-0.14 0.221-0.255 0.439-0.255 0.482 0 0.168-0.683 1.47-0.849 1.63-0.0966 0.0873-0.386 0.553-0.646 1.03-0.558 1.04-0.553 1.15 0.0778 1.62 0.244 0.181 1.02 0.815 1.71 1.41 0.699 0.593 1.41 1.17 1.59 1.29 0.245 0.165 0.318 0.27 0.318 0.458 0 0.28 0.191 0.397 0.384 0.237 0.107-0.0886 0.196-0.0585 0.529 0.177 0.688 0.489 1.38 1.13 1.43 1.33 0.0291 0.115 0.113 0.19 0.211 0.19 0.249 0 1.07 0.444 1.64 0.884 0.28 0.217 0.984 0.841 1.57 1.39 0.606 0.572 1.94 1.66 3.12 2.55 3.1 2.31 4.5 3.49 5.05 4.26 0.196 0.267 0.46 0.497 0.725 0.63 0.452 0.229 1.56 1.23 1.95 1.76 0.203 0.278 0.241 0.413 0.241 0.855v0.527l-0.572 0.503c-0.876 0.773-0.913 0.791-1.58 0.786-0.328-0.0021-0.733-0.0529-0.902-0.113zm-20.7-22.4c0.238-0.283 0.757-1.56 0.717-1.76-0.0381-0.195-0.325-0.202-0.627-0.0155-0.148 0.0916-0.418 0.165-0.606 0.165-0.243 0-0.458 0.0786-0.751 0.275-0.582 0.389-0.577 0.553 0.0281 1.01 0.87 0.664 0.937 0.683 1.24 0.32zm-73 15.4c-1.02-0.357-1.84-1.27-2.14-2.38-0.247-0.905-0.253-1.51-0.0251-2.62 0.119-0.582 0.251-1.15 0.294-1.26 0.0429-0.113 0.113-0.572 0.156-1.02 0.101-1.05 0.249-1.46 0.855-2.38 0.722-1.1 0.839-1.36 0.839-1.88 1.7e-4 -0.466 0.122-0.765 0.516-1.27 0.121-0.155 0.4-0.72 0.616-1.25 0.54-1.32 0.706-1.59 1.19-1.96 0.542-0.41 0.595-0.519 0.569-1.17-0.0204-0.519-3e-3 -0.577 0.275-0.942 0.163-0.214 0.431-0.632 0.595-0.929 0.167-0.304 0.479-0.693 0.709-0.892 0.315-0.27 0.455-0.474 0.601-0.868 0.198-0.542 0.418-0.889 1.7-2.67 1.01-1.41 1.23-1.64 1.67-1.75 0.197-0.0495 0.4-0.139 0.447-0.198 0.0492-0.0593 0.147-0.407 0.216-0.773 0.122-0.64 0.145-0.683 0.646-1.17 0.286-0.28 0.616-0.664 0.738-0.849 0.291-0.447 1.17-1.51 1.33-1.59 0.0669-0.0376 0.237-0.296 0.378-0.574 0.244-0.484 0.5-0.773 1.53-1.73 0.611-0.569 1.46-1.55 1.63-1.89 0.0791-0.153 0.331-0.394 0.564-0.534 0.394-0.243 0.516-0.429 0.347-0.532-0.0405-0.025-0.365 0.0105-0.722 0.0788-0.357 0.0683-0.905 0.119-1.22 0.112-0.368-0.0077-0.701 0.0408-0.95 0.138-0.21 0.0823-0.534 0.168-0.72 0.191-0.186 0.0228-0.418 0.115-0.516 0.204-0.146 0.134-0.288 0.16-0.812 0.146-0.511-0.0132-0.693 0.0176-0.923 0.157-0.158 0.0955-0.669 0.249-1.14 0.341-0.466 0.0923-1.24 0.325-1.72 0.519-0.767 0.31-0.923 0.344-1.31 0.299-0.431-0.0508-0.46-0.0408-0.844 0.291-0.386 0.333-0.489 0.37-1.33 0.476-0.21 0.0265-0.685 0.18-1.06 0.341-0.373 0.162-0.812 0.294-0.979 0.294-0.349 0-1.25 0.442-2.23 1.09-0.244 0.162-0.421 0.213-0.701 0.201-0.328-0.0143-0.421 0.025-0.73 0.307-0.196 0.178-0.648 0.484-1.01 0.68-0.54 0.296-0.698 0.434-0.931 0.81-0.154 0.249-0.516 0.704-0.807 1.01-0.442 0.471-0.572 0.561-0.804 0.558-0.603-7.93e-4 -1.05-0.492-1.14-1.26-0.0423-0.357-7.1e-4 -0.503 0.378-1.3 0.667-1.42 0.987-1.73 2.09-2.08 0.717-0.225 2.31-0.942 2.7-1.21 0.264-0.187 0.384-0.219 0.688-0.185 0.312 0.0352 0.492-0.0178 1.18-0.349 0.444-0.215 0.833-0.429 0.86-0.474 0.028-0.0455 0.373-0.181 0.765-0.302 0.392-0.12 0.736-0.254 0.762-0.299 0.0997-0.162 0.587-0.352 2.16-0.844 1.23-0.386 1.71-0.497 2.05-0.484 0.365 0.0152 0.505-0.0232 0.783-0.213 0.185-0.127 0.397-0.231 0.468-0.231 0.0725 0 0.36-0.0632 0.638-0.14 0.278-0.0773 0.603-0.147 0.725-0.155 0.122-0.0082 0.36-0.0998 0.527-0.203 0.237-0.146 0.415-0.184 0.794-0.17 0.27 0.01 0.696-0.0259 0.947-0.0796 0.251-0.0537 0.64-0.0976 0.865-0.0976 0.225 0 0.534-0.0529 0.688-0.118 0.307-0.129 0.995-0.278 1.84-0.394 0.302-0.0418 0.741-0.116 0.974-0.165 0.233-0.049 0.524-0.0669 0.648-0.0397 0.124 0.0272 0.429-0.0153 0.677-0.0942 0.339-0.108 0.81-0.148 1.89-0.162 0.868-0.0108 1.54-0.0574 1.68-0.118 0.134-0.055 0.325-0.0744 0.423-0.0431 0.5 0.159 2.99 0.0132 3.7-0.218 0.139-0.0439 0.355-0.0413 0.529 0.0071 0.21 0.0579 0.349 0.0513 0.487-0.0235 0.106-0.0577 0.421-0.111 0.698-0.118 0.28-0.0074 1.19-0.0566 2.03-0.11 1.1-0.0698 1.61-0.0706 1.86-0.0036 0.429 0.115 0.942 0.635 1.06 1.07 0.129 0.479 0.135 1.27 0.0146 1.83l-0.107 0.497 0.254 0.265c0.318 0.331 0.654 0.992 0.773 1.52 0.077 0.344 0.0632 0.505-0.0871 1.04-0.0979 0.349-0.27 1.17-0.381 1.83-0.185 1.09-0.225 1.22-0.466 1.46-0.218 0.225-0.275 0.37-0.339 0.855-0.115 0.9-0.362 1.56-0.9 2.37-0.174 0.264-0.32 0.627-0.378 0.931-0.108 0.582-0.174 0.722-0.556 1.17-0.157 0.184-0.384 0.548-0.505 0.804-0.267 0.572-2.55 3.86-3.04 4.42-0.355 0.384-0.365 0.389-0.815 0.349-0.402-0.0333-0.471-0.0151-0.593 0.158-0.0926 0.132-0.122 0.294-0.0897 0.497 0.0437 0.278-0.0317 0.413-1 1.79-0.849 1.21-1.1 1.64-1.32 2.24-0.148 0.413-0.439 1.03-0.648 1.38-0.208 0.344-0.479 0.897-0.603 1.23-0.124 0.331-0.333 0.781-0.466 1-0.288 0.479-0.667 1.36-0.667 1.55 0 0.283 0.31 0.0611 0.847-0.606 0.902-1.12 2.13-2.28 2.56-2.42 0.273-0.0862 0.394-0.182 0.482-0.378 0.0823-0.187 0.233-0.312 0.521-0.434 0.288-0.122 0.468-0.273 0.627-0.521 0.121-0.192 0.278-0.349 0.344-0.349 0.0661 0 0.402-0.275 0.741-0.614 0.902-0.897 2.51-1.78 3.89-2.14 1.33-0.347 3.18 0.0458 3.84 0.807 0.392 0.463 0.434 0.786 0.278 2.02-0.17 1.34-0.437 2.5-0.942 4.07-0.37 1.16-0.381 1.22-0.36 2.14 0.0197 0.841 0.0394 0.95 0.178 0.976 0.0857 0.0164 0.238-0.0452 0.339-0.137 0.101-0.0918 0.312-0.232 0.468-0.312 0.157-0.0791 0.513-0.389 0.794-0.688 0.288-0.307 0.667-0.614 0.873-0.704 0.202-0.0892 0.773-0.545 1.28-1.02 0.503-0.474 1.26-1.09 1.68-1.37 0.421-0.28 0.91-0.643 1.09-0.802 0.545-0.489 0.91-0.569 1.12-0.242 0.128 0.196 0.126 0.249-0.0315 0.783-0.0931 0.315-0.195 0.725-0.227 0.913-0.0897 0.524-0.855 2.05-1.06 2.12-0.0958 0.0304-0.384 0.239-0.64 0.463-0.257 0.225-0.667 0.489-0.913 0.59-0.288 0.117-0.497 0.267-0.593 0.429-0.267 0.45-0.381 0.521-0.765 0.463-0.4-0.0598-0.548 0.0487-0.762 0.556-0.0683 0.161-0.296 0.463-0.508 0.669-0.296 0.288-0.468 0.386-0.746 0.423-0.323 0.0429-0.373 0.081-0.455 0.339-0.138 0.426-1.47 1.26-2.21 1.38-0.511 0.0855-0.534 0.0807-0.939-0.178-0.228-0.146-0.452-0.265-0.5-0.265-0.23 0-0.577-0.429-0.881-1.09-0.291-0.627-0.341-0.831-0.373-1.44-0.0201-0.418 2e-3 -0.759 0.0524-0.82 0.0566-0.068 0.0595-0.204 9e-3 -0.389-0.059-0.214-0.0109-0.677 0.196-1.89 0.151-0.884 0.336-1.85 0.415-2.14 0.18-0.683 0.158-2.04-0.0354-2.14-0.0699-0.0333-0.247-0.123-0.394-0.199-0.444-0.231-0.598-0.183-0.878 0.275-0.283 0.463-0.4 0.534-0.743 0.463-0.203-0.0408-0.28 0.0062-0.545 0.328-0.193 0.236-0.489 0.463-0.794 0.606-0.267 0.126-0.619 0.341-0.786 0.476-0.166 0.137-0.336 0.248-0.378 0.248-0.14 0-1.24 0.86-1.42 1.11-0.0963 0.135-0.229 0.246-0.294 0.246-0.0654 0-0.201 0.112-0.302 0.248-0.101 0.137-0.347 0.336-0.548 0.442-0.2 0.106-0.402 0.275-0.447 0.376-0.046 0.101-0.229 0.255-0.407 0.341-0.202 0.099-0.392 0.286-0.508 0.497-0.275 0.503-0.331 0.545-0.651 0.495-0.429-0.0698-0.616 0.0773-0.77 0.603-0.12 0.413-0.263 0.595-1.31 1.67-0.714 0.738-1.26 1.38-1.39 1.63-0.235 0.463-0.487 0.722-1.09 1.13-0.725 0.487-1.1 0.302-1.6-0.786-0.246-0.542-0.258-0.611-0.165-0.945 0.0553-0.197 0.0754-0.437 0.045-0.532-0.0855-0.27 0.593-2.2 1.02-2.91 0.497-0.826 0.87-2.01 0.632-2.01-0.0431 0-0.312 0.14-0.601 0.31-0.585 0.349-0.974 0.397-1.16 0.148-0.203-0.27-0.106-1.41 0.171-2.01 0.291-0.638 0.701-1.15 1.03-1.29 0.143-0.0611 1.01-0.852 1.93-1.76 1.56-1.55 1.69-1.7 2.04-2.4 0.205-0.41 0.439-0.926 0.521-1.15 0.0823-0.219 0.221-0.463 0.31-0.542 0.0876-0.0794 0.16-0.197 0.16-0.261 0-0.064 0.133-0.25 0.296-0.413 0.18-0.18 0.296-0.378 0.296-0.508 0-0.243 0.357-1.06 0.778-1.79 0.159-0.273 0.529-1.01 0.826-1.64 0.296-0.63 0.688-1.47 0.876-1.86 0.188-0.397 0.521-1.15 0.743-1.67 0.479-1.12 0.865-1.84 1.39-2.55 0.21-0.286 0.521-0.796 0.693-1.14 0.171-0.339 0.397-0.733 0.503-0.87 0.106-0.138 0.442-0.68 0.751-1.2 0.307-0.521 0.746-1.19 0.974-1.49 0.228-0.296 0.497-0.709 0.603-0.915 0.105-0.207 0.26-0.476 0.347-0.598 0.195-0.275 0.143-0.328-0.323-0.328-0.429 0-0.836-0.183-0.908-0.41-0.0831-0.262-0.394-0.479-1.11-0.773l-0.677-0.278-1.4 0.0968c-0.767 0.0532-2.14 0.0873-3.04 0.0757-1.88-0.0239-3.23 0.101-3.49 0.323-0.22 0.199-0.2 0.54 0.0616 1.07l0.221 0.452-0.273 0.482c-0.205 0.362-0.513 0.683-1.25 1.3-0.537 0.45-1.11 1.01-1.28 1.24-0.165 0.23-0.447 0.511-0.624 0.622-0.302 0.19-1.09 1.09-1.09 1.25-3e-5 0.0376-0.0714 0.228-0.158 0.423-0.087 0.195-0.173 0.402-0.19 0.458-0.0672 0.213-0.984 1.35-1.43 1.78-0.32 0.307-0.534 0.444-0.688 0.444-0.341 5e-5 -0.434 0.177-0.368 0.704 0.0368 0.294 0.025 0.479-0.0325 0.516-0.0495 0.0307-0.296 0.407-0.55 0.836-0.253 0.429-0.545 0.857-0.648 0.95-0.225 0.202-0.791 1.3-0.923 1.79-0.112 0.415-0.503 1.01-1.28 1.93-0.714 0.855-0.826 1.07-0.934 1.83-0.0947 0.669-0.495 1.52-0.931 1.98-0.186 0.195-0.263 0.389-0.333 0.831-0.0505 0.318-0.17 0.775-0.265 1.02-0.095 0.241-0.378 0.987-0.632 1.66-0.253 0.672-0.532 1.34-0.616 1.48-0.087 0.144-0.312 0.513-0.503 0.823-0.233 0.378-0.376 0.736-0.439 1.1-0.0527 0.296-0.186 0.884-0.296 1.3-0.11 0.418-0.225 0.971-0.254 1.23-0.0296 0.256-0.208 0.902-0.397 1.43l-0.344 0.968 0.179 0.368c0.211 0.434 0.228 0.881 0.0519 1.38-0.0699 0.198-0.127 0.479-0.127 0.624-4.3e-4 0.341-0.265 0.773-0.566 0.926-0.415 0.21-1.36 0.246-1.86 0.0709zm46.3-1.16c-0.26-0.218-0.261-0.219-0.72-0.0855-0.759 0.221-1.23 0.203-1.84-0.072-1.06-0.476-1.07-0.484-1.31-0.945-0.146-0.278-0.312-0.471-0.444-0.519-0.177-0.0622-0.27-0.237-0.556-1.05-0.312-0.884-0.37-0.987-0.632-1.12-0.479-0.239-0.537-0.341-0.527-0.91 0.0152-0.669 0.172-1.03 0.683-1.57 0.265-0.28 0.447-0.564 0.505-0.788 0.05-0.193 0.133-0.513 0.183-0.712 0.156-0.611 1.48-3.07 1.82-3.36 0.164-0.144 0.349-0.262 0.41-0.262 0.235 0 0.54-0.341 0.632-0.709 0.103-0.407 0.386-0.799 0.701-0.968 0.11-0.0587 0.286-0.234 0.394-0.392 0.215-0.315 0.812-0.661 1.84-1.06 0.373-0.147 0.818-0.378 0.992-0.516 0.267-0.212 0.362-0.242 0.64-0.198 0.218 0.0349 0.564-0.0119 1.04-0.142 0.905-0.246 2.32-0.27 3.1-0.0516 0.28 0.0794 0.654 0.166 0.833 0.192 0.357 0.0521 0.992 0.569 1.21 0.982 0.18 0.347 0.146 0.902-0.0847 1.4-0.239 0.513-1.05 1.36-1.63 1.7-0.224 0.13-0.773 0.511-1.22 0.847-0.749 0.564-0.836 0.606-1.12 0.561-0.368-0.0595-0.532 0.0603-0.86 0.619-0.175 0.299-0.262 0.368-0.46 0.368-0.376 0-0.484 0.0693-0.804 0.516-0.164 0.228-0.355 0.415-0.423 0.415-0.0688 0-0.318 0.171-0.553 0.381-0.606 0.54-0.818 0.661-1.12 0.654-0.341-0.0097-0.466 0.0971-0.534 0.452-0.0439 0.234-0.134 0.331-0.508 0.542-0.251 0.141-0.513 0.257-0.582 0.257-0.0688 0-0.186 0.0908-0.258 0.201-0.0773 0.118-0.339 0.278-0.632 0.384-0.534 0.195-0.532 0.19-0.683 0.984-0.14 0.741-0.0923 0.974 0.248 1.2 0.233 0.157 0.402 0.193 0.889 0.192 0.881-0.0021 2.06-0.207 2.59-0.45 0.265-0.121 0.722-0.238 1.06-0.273 0.529-0.0534 0.63-0.0945 0.945-0.381 0.365-0.336 0.95-0.672 1.16-0.672 0.0683 0 0.349-0.229 0.624-0.508 0.423-0.431 0.545-0.508 0.799-0.508 0.252 0 0.349-0.0598 0.609-0.376 0.225-0.275 0.437-0.423 0.794-0.556 0.267-0.0995 0.601-0.288 0.741-0.418 0.14-0.131 0.405-0.286 0.59-0.347 0.185-0.0608 0.527-0.286 0.762-0.503 0.974-0.902 1.37-1.11 1.46-0.765 0.0749 0.286 0.171 0.188 0.171-0.176 0-0.413 0.0458-0.463 0.91-1.01 0.516-0.325 0.712-0.505 0.844-0.773 0.216-0.437 0.884-0.852 1.12-0.701 0.128 0.0802 0.15 0.229 0.153 1.02 3e-3 0.894-5e-3 0.937-0.275 1.39-0.153 0.257-0.28 0.524-0.28 0.593-3e-3 0.21-0.323 0.844-0.423 0.844-0.0527 0-0.255 0.129-0.45 0.286-0.194 0.157-0.468 0.344-0.606 0.415-0.14 0.0709-0.386 0.294-0.548 0.495-0.566 0.704-1.38 1.52-1.52 1.52-0.0781 0-0.185-0.0431-0.238-0.0958-0.155-0.155-0.349-0.019-0.497 0.344-0.187 0.468-1.34 1.25-1.9 1.29-0.357 0.0254-0.386 0.0479-0.569 0.429-0.225 0.471-0.418 0.614-0.995 0.743-0.233 0.0519-0.746 0.267-1.14 0.479-0.804 0.431-3.23 1.33-3.81 1.42-0.344 0.0513-0.423 0.032-0.651-0.16zm0.182-8.81c0.529-0.265 1.54-0.974 2.39-1.66 0.186-0.153 0.564-0.444 0.839-0.646 0.275-0.202 0.733-0.595 1.02-0.873 0.283-0.278 0.632-0.556 0.778-0.616 0.143-0.0611 0.31-0.17 0.37-0.243 0.265-0.32-0.386-0.519-0.841-0.259-0.116 0.0667-0.378 0.122-0.582 0.124-0.212 0.0016-0.484 0.0725-0.635 0.165-0.145 0.0889-0.421 0.203-0.611 0.254-0.19 0.0505-0.593 0.278-0.894 0.508-0.302 0.23-0.757 0.55-1.01 0.712-0.656 0.421-0.971 0.815-1.45 1.82-0.59 1.23-0.524 1.31 0.643 0.725zm55.8 8.78c-0.781-0.511-1.16-1.13-1.06-1.75 0.036-0.241 0-0.497-0.12-0.844-0.203-0.59-0.229-1.56-0.055-2.05 0.064-0.182 0.183-0.672 0.264-1.09 0.0812-0.418 0.216-0.873 0.302-1.01 0.0841-0.14 0.229-0.529 0.323-0.865 0.0937-0.336 0.265-0.738 0.384-0.892 0.119-0.153 0.255-0.463 0.304-0.691 0.0508-0.226 0.186-0.572 0.302-0.767 0.241-0.41 0.26-0.574 0.0836-0.722-0.102-0.0844-0.198-0.0614-0.511 0.123-0.288 0.169-0.45 0.213-0.638 0.172-0.258-0.0566-0.339-0.0129-1.06 0.585-0.265 0.219-0.328 0.236-0.579 0.16-0.347-0.107-0.527-0.0155-0.598 0.304-0.0812 0.37-0.466 0.675-1.11 0.881-0.558 0.179-0.595 0.208-0.826 0.638-0.614 1.15-1.83 1.28-1.83 0.196 0-0.511 0.177-1.56 0.288-1.7 0.0513-0.0654 0.22-0.172 0.373-0.236 0.402-0.168 0.929-0.566 1.26-0.955 0.158-0.185 0.606-0.55 0.997-0.812 0.389-0.262 0.905-0.646 1.15-0.849 0.415-0.355 0.635-0.455 0.942-0.437 0.139 0.0087 0.553-0.307 1.37-1.05 0.239-0.215 0.569-0.458 0.73-0.542 0.161-0.0847 0.447-0.278 0.63-0.437 0.415-0.355 0.852-0.482 1.31-0.378 1.05 0.235 2.21 1.43 2.21 2.28 0 0.415-0.638 3.28-0.863 3.89-0.0937 0.25-0.28 0.582-0.415 0.736-0.135 0.154-0.245 0.339-0.245 0.41 0 0.0717-0.0987 0.248-0.22 0.392-0.196 0.232-0.213 0.307-0.162 0.683 0.0487 0.355 0.0296 0.458-0.119 0.646-0.147 0.187-0.177 0.344-0.177 0.929 0 0.386-0.0381 0.728-0.0847 0.757-0.217 0.134-0.0357 0.212 0.492 0.212 0.537 0 0.595-0.0186 0.826-0.264 0.137-0.145 0.688-0.479 1.22-0.743 0.91-0.447 2.27-1.43 4.89-3.52 0.59-0.471 0.937-0.495 1.13-0.077 0.128 0.28-0.0212 0.852-0.503 1.94-0.421 0.945-0.96 1.6-1.87 2.26-0.386 0.283-0.979 0.767-1.31 1.08-0.333 0.31-0.942 0.804-1.35 1.1-0.407 0.294-0.741 0.569-0.741 0.611 0 0.0429-0.296 0.231-0.656 0.418-0.36 0.187-0.863 0.455-1.11 0.593-0.249 0.138-0.556 0.254-0.677 0.254-0.206 5.29e-4 -0.344 0.0696-0.868 0.437-0.128 0.0894-0.463 0.161-0.921 0.197-0.696 0.0537-0.733 0.0476-1.1-0.193zm64.3 0.014-0.226-0.226-0.534 0.15c-0.775 0.217-1.24 0.203-1.73-0.055-0.229-0.119-0.534-0.243-0.68-0.275-0.312-0.0677-0.537-0.294-0.786-0.788-0.0992-0.198-0.231-0.36-0.294-0.36-0.201 0-0.365-0.283-0.667-1.14-0.251-0.717-0.339-0.876-0.582-1.03-0.593-0.381-0.611-0.415-0.558-1.05 0.0561-0.669 0.286-1.17 0.651-1.43 0.323-0.229 0.442-0.46 0.672-1.31 0.113-0.415 0.46-1.2 0.9-2.05 0.733-1.4 1-1.73 1.51-1.86 0.264-0.0664 0.431-0.294 0.519-0.714 0.0458-0.218 0.256-0.489 0.799-1.03 0.804-0.799 0.87-0.841 1.99-1.29 0.418-0.169 0.921-0.421 1.12-0.561 0.302-0.215 0.405-0.246 0.685-0.202 0.223 0.0357 0.534-0.0063 0.958-0.129 0.878-0.254 2.29-0.328 2.73-0.143 0.181 0.0762 0.542 0.163 0.804 0.192 0.815 0.0918 1.38 0.503 1.68 1.21 0.339 0.807-0.511 2.19-1.84 2.99-0.256 0.154-0.598 0.384-0.762 0.511-1.05 0.815-1.2 0.9-1.49 0.852-0.331-0.054-0.5 0.0656-0.892 0.632-0.206 0.299-0.294 0.36-0.524 0.36-0.286 0-0.603 0.259-0.81 0.656-0.054 0.105-0.224 0.243-0.376 0.307-0.153 0.064-0.479 0.296-0.725 0.513-0.505 0.45-0.749 0.566-1.02 0.495-0.223-0.0582-0.421 0.155-0.421 0.452 0 0.137-0.128 0.275-0.452 0.492-0.249 0.165-0.508 0.302-0.577 0.302-0.068 0-0.229 0.11-0.357 0.245-0.129 0.135-0.355 0.27-0.497 0.296-0.521 0.105-0.619 0.235-0.778 1.05-0.17 0.876-0.121 1.06 0.339 1.25 0.579 0.242 2.6 0.0466 3.41-0.331 0.263-0.12 0.725-0.239 1.06-0.273 0.553-0.0566 0.622-0.0868 1.03-0.463 0.243-0.221 0.616-0.463 0.831-0.534 0.253-0.0862 0.556-0.296 0.86-0.601 0.389-0.389 0.519-0.468 0.762-0.468 0.214 0 0.344-0.0606 0.479-0.223 0.384-0.466 0.606-0.632 0.952-0.72 0.196-0.0492 0.492-0.217 0.659-0.373 0.166-0.156 0.447-0.323 0.627-0.373 0.179-0.0484 0.439-0.207 0.577-0.352 0.378-0.402 1.31-1.09 1.48-1.09 0.0807 0 0.176 0.0857 0.211 0.19 0.0598 0.178 0.0664 0.173 0.0966-0.0635 0.072-0.564 0.111-0.611 0.878-1.1 0.627-0.397 0.791-0.548 0.9-0.812 0.0942-0.236 0.238-0.386 0.513-0.542 0.471-0.263 0.577-0.267 0.738-0.0239 0.0945 0.144 0.106 0.273 0.0492 0.527-0.0415 0.184-0.0553 0.566-0.0307 0.847 0.0402 0.455 0.0213 0.542-0.172 0.799-0.119 0.158-0.299 0.532-0.397 0.831-0.148 0.447-0.237 0.577-0.503 0.746-0.178 0.112-0.349 0.244-0.378 0.294-0.0304 0.0492-0.202 0.164-0.381 0.256-0.19 0.0971-0.688 0.577-1.19 1.15-0.905 1.02-0.873 1.01-1.41 0.839-0.164-0.0511-0.211-0.0082-0.352 0.323-0.168 0.392-0.202 0.423-1.07 0.995-0.36 0.238-0.598 0.336-0.82 0.336-0.235 1.7e-4 -0.355 0.0548-0.487 0.223-0.0966 0.123-0.175 0.27-0.175 0.328 0 0.221-0.439 0.542-0.82 0.601-0.21 0.0315-0.781 0.263-1.27 0.513-0.976 0.503-3.23 1.34-3.84 1.42-0.336 0.0455-0.407 0.0249-0.609-0.175zm0.0995-8.78c0.677-0.341 1.76-1.09 2.62-1.82 0.21-0.176 0.648-0.519 0.974-0.759s0.698-0.572 0.831-0.738c0.13-0.165 0.429-0.397 0.661-0.516 0.341-0.173 0.418-0.252 0.397-0.402-0.021-0.148-0.0913-0.192-0.341-0.212-0.173-0.0143-0.402 0.0219-0.508 0.0804-0.107 0.0585-0.384 0.132-0.616 0.164-0.561 0.0754-1.75 0.59-2.19 0.95-0.194 0.159-0.624 0.463-0.958 0.677-0.685 0.439-0.976 0.807-1.48 1.88-0.328 0.701-0.381 0.897-0.273 1 0.0857 0.0857 0.103 0.0794 0.876-0.31zm-57.7-13.1c-0.489-0.355-0.95-0.926-1.02-1.27-0.0352-0.167-0.0643-0.691-0.0648-1.16-1e-3 -1.12 0.0849-1.25 1.02-1.57 1.01-0.339 1.17-0.323 1.66 0.179 0.4 0.415 0.709 0.923 0.841 1.38 0.0595 0.208-6e-3 0.698-0.219 1.64-0.0656 0.291-0.468 0.714-0.841 0.884-0.516 0.234-0.971 0.206-1.37-0.0836z">
   <title>theRidge</title>
  </path>
  <path d="m88.9 139c-2.32-2.47-2.99-3.12-3.15-3.12-0.115 0-5.32 0.799-11.6 1.78-6.27 0.979-11.5 1.78-11.5 1.78-0.0939 0-0.122-0.0294-0.0725-0.0765 0.0442-0.0421 6.01-2.05 13.3-4.44 7.25-2.41 14-4.66 15-5 2.75-0.945 3.6-1.15 5.16-1.24 1.66-0.0952 3.57-0.333 6.06-0.751 3.86-0.654 4.6-0.852 5.64-1.54 2.42-1.58 14-10.1 25.6-18.8 1.94-1.46 3.6-2.7 3.68-2.75 0.14-0.0878 0.495 0.0767 2.64 1.23l2.47 1.33 5.29 4.97c2.91 2.73 5.37 4.97 5.45 5 0.132 0.0221 7.3-3.04 8.1-3.44 0.149-0.0786 2.54-2.7 5.42-5.98l5.16-5.85 7.96-6.98c4.39-3.84 8.02-7.01 8.1-7.06 0.0825-0.0474 1.14 0.929 3.65 3.36 1.94 1.89 3.6 3.44 3.68 3.44 0.0751 7e-5 1.39-0.529 2.91-1.17l2.78-1.17 23-23.6 7.54-5.27 4.6-4.15c2.53-2.29 4.66-4.18 4.71-4.18 0.117-0.026 1.38 1.41 17.5 19.9l8.23 9.47 5.08 11.2c2.8 6.16 5.05 11.2 5.03 11.3-0.0288 0.0288-0.0788 0.0118-0.111-0.0376-0.0323-0.0495-0.847-1.29-1.81-2.75-0.963-1.46-3.92-5.98-6.59-10l-4.82-7.36-11.2-11.7c-6.19-6.43-11.4-11.8-11.5-11.9-0.121-0.113-0.239-0.186-0.262-0.162-0.0236 0.0236 0.889 3.2 2.03 7.09 1.14 3.86 2.05 7.09 2.03 7.14-0.0246 0.0571-0.823 0.749-1.78 1.53s-1.73 1.46-1.73 1.49c0 0.0347 0.505 0.839 1.12 1.79 2.03 3.12 3.55 5.19 4.63 6.38 1.1 1.2 2.5 3.39 4.68 7.22 1.56 2.78 1.8 3.23 1.65 3.2-0.0717-0.0163-3.2-2.91-6.96-6.43l-6.83-6.4-4.13-1.8c-2.26-0.99-4.18-1.8-4.23-1.8-0.0601 0-0.109 0.0253-0.109 0.0561 0 0.031 0.648 1.33 1.44 2.88 0.791 1.55 1.44 2.86 1.44 2.91 0 0.0487-0.0476 0.0892-0.106 0.0897-0.0582 5.3e-4 -1.48-0.598-3.15-1.33l-3.04-1.33-3.12-1.93c-1.72-1.06-3.18-1.92-3.23-1.91-0.11 0.0243-13 10.1-13.1 10.2-0.0474 0.0767-0.521-0.492 7.75 9.29 3.52 4.15 6.43 7.65 6.51 7.73 0.0609 0.0868 0.0736 0.158 0.0286 0.158-0.0452 0-3.1-2.23-6.75-4.95-3.68-2.73-6.69-4.92-6.72-4.89-0.0347 0.0362-0.143 0.96-0.24 2.05-0.0974 1.09-0.212 2.02-0.254 2.06-0.0468 0.0468-1.93-1.18-4.76-3.1l-4.68-3.17-2.16-0.191c-1.19-0.105-2.2-0.214-2.26-0.243-0.0534-0.0286-1.28-1.21-2.73-2.62-1.62-1.58-2.67-2.56-2.75-2.54-0.168 0.0349-6.48 6.91-6.48 7.06 0 0.0598 3.62 3.6 8.07 7.86 8.84 8.49 8.92 8.57 8.84 8.65-0.0258 0.0258-3.47-1.98-7.62-4.44-4.18-2.47-7.62-4.5-7.67-4.5-0.0529 0-0.0876 0.0168-0.0876 0.0373 0 0.0206 0.418 1.44 0.931 3.15 0.513 1.71 0.931 3.18 0.931 3.25 0 0.101-0.99 0.598-3.57 1.8-2.3 1.07-3.57 1.7-3.57 1.78 0 0.0675 3.23 3.7 7.14 8.1 6.19 6.91 7.49 8.41 7.14 8.2-0.0394-0.0227-5.69-3.41-12.5-7.54l-12.5-7.51-7.25 1.78c-4 0.979-7.33 1.78-7.41 1.78-0.0881 0-2.78-2.35-6.14-5.34l-5.98-5.34-1.39-0.669c-0.984-0.474-1.43-0.648-1.53-0.598-0.275 0.134-16.5 15-16.5 15.2-0.0134 0.078 0.738 2.38 1.67 5.13 0.934 2.75 1.7 5 1.7 5.03 0 0.136-0.773-0.256-5.03-2.55-2.63-1.42-4.87-2.58-4.97-2.58-0.11 0-0.974 0.0823-1.92 0.183l-1.72 0.184-1.96 1.47c-1.08 0.807-2.02 1.47-2.1 1.47-0.078 0-1.15-0.283-2.38-0.63l-2.24-0.63-4.92 0.812c-2.7 0.447-4.95 0.836-4.97 0.865-0.0527 0.0452-0.402 7.46-0.402 8.55-8e-5 0.237-0.0376 0.36-0.109 0.36-0.0598 0-1.43-1.41-3.04-3.12z">
   <title>ridgeline</title>
  </path>
  <path d="m203 151c-2.11-0.484-3.31-2.48-2.88-4.84 0.376-2.11 1.98-3.41 4.18-3.41 0.635-1e-3 1.76 0.207 1.84 0.341 0.0566 0.0915-0.107 0.733-0.201 0.791-0.0368 0.0227-0.267-0.0173-0.511-0.0889-0.307-0.0899-0.701-0.121-1.27-0.101-0.751 0.0262-0.884 0.0569-1.41 0.325-1.11 0.569-1.61 1.59-1.54 3.18 0.0442 0.992 0.254 1.57 0.786 2.16 0.511 0.564 1.11 0.802 2.12 0.839 0.569 0.0206 1-0.0103 1.31-0.0939 0.255-0.0685 0.489-0.108 0.524-0.0884 0.0323 0.0199 0.104 0.173 0.159 0.341 0.081 0.246 0.078 0.325-0.015 0.41-0.328 0.304-2.21 0.466-3.1 0.263zm14.3 4e-3c-0.553-0.156-1.06-0.527-1.39-1.02-0.527-0.781-0.556-0.984-0.593-4.13-0.0352-2.8-0.0331-2.86 0.138-2.94 0.171-0.0915 0.685-0.0706 0.855 0.0347 0.0572 0.0352 0.0876 0.947 0.0876 2.63 0 1.54 0.0373 2.75 0.0931 3.02 0.116 0.558 0.421 1.1 0.751 1.34 0.701 0.5 1.83 0.384 2.4-0.247 0.521-0.577 0.566-0.876 0.566-3.89 8e-4 -1.47 0.031-2.73 0.0672-2.78 0.0725-0.114 0.235-0.142 0.714-0.121l0.318 0.0134v2.65c0 1.46-0.0384 2.86-0.0852 3.1-0.196 1.03-0.749 1.79-1.59 2.18-0.569 0.261-1.7 0.336-2.33 0.158zm15.1 0.0632c-2.16-0.421-3.33-2.02-3.2-4.37 0.0818-1.38 0.579-2.38 1.56-3.12 0.807-0.609 1.45-0.794 2.73-0.786 0.733 5e-3 1.16 0.0471 1.4 0.137 0.315 0.121 0.339 0.152 0.328 0.444-0.0162 0.492-0.153 0.574-0.698 0.415-0.323-0.0945-0.693-0.124-1.27-0.101-1.01 0.0405-1.58 0.286-2.16 0.926-0.91 1.01-1.07 2.83-0.368 4.15 0.286 0.54 0.683 0.9 1.3 1.18 0.566 0.255 1.84 0.312 2.52 0.112 0.27-0.078 0.519-0.111 0.558-0.0728 0.0381 0.0381 0.0944 0.228 0.125 0.423l0.0566 0.355-0.455 0.138c-0.45 0.136-2.03 0.24-2.44 0.161zm-61.9-0.124c-0.138-0.0802-0.148-0.36-0.148-3.97 0-3.49 0.0135-3.89 0.14-4 0.107-0.0884 0.484-0.116 1.59-0.116 1.33 0 1.48 0.0156 1.87 0.195 0.508 0.234 0.95 0.638 1.11 1.01 0.172 0.4 0.148 1.15-0.0474 1.54-0.163 0.32-0.698 0.857-0.855 0.857-0.167 0-0.0743 0.23 0.13 0.323 0.116 0.0529 0.381 0.252 0.587 0.442 0.767 0.706 0.849 1.83 0.206 2.78-0.519 0.754-1.41 1.04-3.25 1.04-0.651-7.9e-4 -1.25-0.0402-1.33-0.0876zm3.04-0.958c1.24-0.577 1.11-2.25-0.21-2.73-0.227-0.0802-0.661-0.131-1.12-0.131h-0.751v1.47c0 0.807 0.0254 1.49 0.0564 1.52 0.0309 0.031 0.402 0.0561 0.826 0.0556 0.63-8e-4 0.847-0.037 1.2-0.202zm-0.434-3.78c0.452-0.125 0.945-0.627 1.02-1.04 0.0963-0.513-0.165-1.05-0.638-1.29-0.333-0.177-0.474-0.197-1.19-0.176l-0.807 0.024-0.0237 1.18c-0.013 0.651-5e-3 1.23 0.0185 1.29 0.0534 0.139 1.13 0.149 1.61 0.0155zm3.97 4.76c-0.13-0.0828-0.163-7.96-0.0341-8.04 0.0439-0.0273 0.275-0.0362 0.511-0.02l0.431 0.0294v8.02h-0.288c-0.159 0-0.341 0.0187-0.402 0.0415-0.0619 0.0228-0.16 0.0115-0.217-0.0252zm2.88-2e-3c-0.155-0.0984-0.158-7.88-3e-3 -7.99 0.365-0.226 2.78-0.194 3.33 0.0434 1.11 0.471 1.57 1.31 1.27 2.32-0.101 0.339-0.229 0.521-0.606 0.857-0.264 0.235-0.463 0.442-0.442 0.46 0.0201 0.0181 0.159 0.095 0.307 0.171 1.41 0.72 1.51 2.78 0.172 3.68-0.574 0.386-1.34 0.537-2.75 0.534-0.643-8e-4 -1.22-0.032-1.28-0.0696zm3.04-1.01c0.36-0.182 0.5-0.315 0.651-0.611 0.37-0.733 0.142-1.52-0.558-1.93-0.362-0.213-0.466-0.232-1.28-0.232h-0.889l-0.0234 1.39c-0.0128 0.767-4e-3 1.44 0.0185 1.5 0.0299 0.0783 0.265 0.109 0.833 0.109 0.696 0 0.847-0.0283 1.25-0.233zm-0.489-3.76c0.675-0.188 1.15-0.863 1.05-1.49-0.123-0.757-0.691-1.07-1.88-1.03l-0.762 0.0248-0.0237 1.18c-0.013 0.651-5e-3 1.23 0.0185 1.29 0.0524 0.137 1.13 0.15 1.6 0.0202zm3.97 4.79c-0.0825-0.0349-0.106-0.926-0.106-4.05v-4l0.336-0.0566c0.184-0.0312 0.413-0.032 0.508-2e-3 0.169 0.0537 0.173 0.12 0.194 3.62l0.0221 3.57 3.39 0.0847 0.0516 0.804-1.97 1e-3c-1.08 8e-4 -2.05 0.0176-2.14 0.0376-0.0931 0.0201-0.217 0.0164-0.275-8e-3zm5.66-2e-3c-0.135-0.0545-0.157-8.04-0.022-8.1 0.046-0.0155 1.03-9e-3 2.18 0.0141l2.1 0.0423v0.762l-1.61 0.0231c-1.15 0.0166-1.62 0.0524-1.67 0.127-0.0775 0.122-0.0923 2.1-0.0172 2.3 0.0442 0.115 0.258 0.134 1.51 0.134 1.58 0 1.66 0.0206 1.66 0.466 0 0.444-0.0733 0.466-1.66 0.466-1.25 0-1.46 0.019-1.51 0.134-0.0754 0.197-0.0603 2.52 0.0172 2.64 0.0479 0.0751 0.534 0.11 1.76 0.127l1.69 0.023 0.0267 0.323c0.0471 0.572 0.0659 0.566-2.26 0.558-1.15-4e-3 -2.13-0.0259-2.19-0.0495zm15.5-3e-5c-0.135-0.0545-0.157-8.04-0.0217-8.1 0.0463-0.0155 0.275-0.015 0.508 1e-3l0.423 0.0294v1.59c0 1.25 0.0252 1.61 0.117 1.69 0.0815 0.0675 0.661 0.09 1.93 0.0738l1.81-0.0229 0.0847-3.31 1.06-0.0505v4.02c0 3.15-0.0232 4.02-0.106 4.05-0.0582 0.0211-0.296 0.0157-0.529-0.0121l-0.423-0.0505-0.0456-3.69-3.84 0.0455-0.0455 3.68h-0.288c-0.158 0-0.339 0.016-0.4 0.0357-0.0619 0.0196-0.16 0.0164-0.219-7e-3zm34.4-6e-3 -0.357-0.0323-0.0455-3.68-3.84-0.0455-0.0456 3.69-1.06 0.0505 0.0439-8.02h1.02l0.0847 3.31 1.81 0.0229c1.26 0.016 1.84-6e-3 1.93-0.0738 0.0915-0.0759 0.117-0.439 0.117-1.69v-1.59l0.431-0.0294c0.237-0.0161 0.468-7e-3 0.511 0.02 0.0481 0.0299 0.0778 1.62 0.0749 4.02-5e-3 3.89-0.0222 4.15-0.256 4.07-0.0233-7e-3 -0.203-0.0281-0.4-0.0458zm-18.8-0.129c-0.0193-2.26 9e-3 -7.81 0.0407-7.83 0.0947-0.0947 0.897-0.176 1.78-0.181 1.47-8e-3 2.26 0.264 2.75 0.945 0.698 0.963 0.402 2.48-0.593 3.04-0.394 0.225-0.421 0.333-0.134 0.524 0.352 0.231 0.622 0.818 0.945 2.05 0.17 0.651 0.328 1.27 0.349 1.37 0.04 0.182 0.0172 0.19-0.479 0.19-0.611 0-0.553 0.0918-0.945-1.46-0.142-0.564-0.31-1.12-0.373-1.24-0.291-0.558-0.844-0.799-1.74-0.754l-0.55 0.027-0.0458 3.44h-0.505c-0.349 0-0.505-0.0331-0.508-0.106zm3.02-4.37c0.598-0.275 0.889-0.728 0.889-1.38 0-0.479-0.223-0.894-0.622-1.16-0.318-0.21-0.405-0.225-1.28-0.225h-0.937l-0.0234 1.35c-0.0129 0.743-5e-3 1.4 0.0185 1.46 0.0693 0.181 1.53 0.143 1.95-0.0508zm-162 1.8c-0.0794-0.0794-0.0683-1.23 0.0133-1.36 0.0537-0.0847 10.3-0.102 50.8-0.0847l50.8 0.0212v1.44l-50.8 0.0212c-27.8 0.0117-50.8-4e-3 -50.8-0.0352zm183-0.0574c-0.024-0.0625-0.0323-0.397-0.0185-0.741l0.0251-0.627h32l0.0487 1.48h-16c-13.3 0-16-0.0191-16.1-0.114z">
   <title>bibleChurch</title>
  </path>
 </g>
</svg>
