<svg version="1.1" viewBox="0 0 1010 422" xmlns="http://www.w3.org/2000/svg">
 <path d="m681 405c-7.99-1.83-12.5-9.37-10.9-18.3 1.42-7.97 7.47-12.9 15.8-12.9 2.4-5e-3 6.64 0.782 6.95 1.29 0.214 0.346-0.403 2.77-0.76 2.99-0.139 0.0857-1.01-0.0655-1.93-0.336-1.16-0.34-2.65-0.458-4.81-0.382-2.84 0.0991-3.34 0.215-5.33 1.23-4.21 2.15-6.1 6.02-5.83 12 0.167 3.75 0.959 5.92 2.97 8.15 1.93 2.13 4.21 3.03 8.01 3.17 2.15 0.0779 3.78-0.0388 4.95-0.355 0.965-0.259 1.85-0.409 1.98-0.334 0.122 0.0754 0.392 0.654 0.601 1.29 0.306 0.928 0.295 1.23-0.0566 1.55-1.24 1.15-8.34 1.76-11.7 0.994zm54.2 0.017c-2.09-0.59-4-1.99-5.25-3.84-1.99-2.95-2.1-3.72-2.24-15.6-0.133-10.6-0.125-10.8 0.521-11.1 0.647-0.346 2.59-0.267 3.23 0.131 0.216 0.133 0.331 3.58 0.331 9.93 0 5.83 0.141 10.4 0.352 11.4 0.437 2.11 1.59 4.16 2.84 5.05 2.65 1.89 6.92 1.45 9.07-0.932 1.97-2.18 2.14-3.31 2.14-14.7 3e-3 -5.56 0.117-10.3 0.254-10.5 0.274-0.431 0.888-0.535 2.7-0.459l1.2 0.0507v10c0 5.52-0.145 10.8-0.322 11.7-0.742 3.91-2.83 6.78-6.01 8.23-2.15 0.986-6.41 1.27-8.81 0.598zm57.1 0.239c-8.17-1.59-12.6-7.65-12.1-16.5 0.309-5.23 2.19-8.99 5.89-11.8 3.05-2.3 5.47-3 10.3-2.97 2.77 0.0189 4.39 0.178 5.28 0.519 1.19 0.456 1.28 0.576 1.24 1.68-0.0611 1.86-0.579 2.17-2.64 1.57-1.22-0.357-2.62-0.468-4.81-0.38-3.82 0.153-5.98 1.08-8.16 3.5-3.44 3.82-4.05 10.7-1.39 15.7 1.08 2.04 2.58 3.4 4.93 4.45 2.14 0.962 6.96 1.18 9.54 0.425 1.02-0.295 1.96-0.419 2.11-0.275 0.144 0.144 0.357 0.863 0.474 1.6l0.214 1.34-1.72 0.52c-1.7 0.515-7.69 0.909-9.24 0.608zm-234-0.467c-0.52-0.303-0.56-1.36-0.56-15 0-13.2 0.0511-14.7 0.529-15.1 0.403-0.334 1.83-0.439 6-0.439 5.03 0 5.6 0.059 7.07 0.736 1.92 0.883 3.59 2.41 4.2 3.81 0.649 1.51 0.561 4.36-0.179 5.81-0.617 1.21-2.64 3.24-3.23 3.24-0.631 0-0.281 0.87 0.491 1.22 0.44 0.2 1.44 0.952 2.22 1.67 2.9 2.67 3.21 6.92 0.779 10.5-1.96 2.85-5.33 3.93-12.3 3.92-2.46-3e-3 -4.73-0.152-5.04-0.331zm11.5-3.62c4.68-2.18 4.2-8.5-0.792-10.3-0.858-0.303-2.5-0.494-4.24-0.494h-2.84v5.55c0 3.05 0.096 5.64 0.213 5.76 0.117 0.117 1.52 0.212 3.12 0.21 2.38-3e-3 3.2-0.14 4.54-0.762zm-1.64-14.3c1.71-0.474 3.57-2.37 3.86-3.94 0.364-1.94-0.622-3.95-2.41-4.89-1.26-0.668-1.79-0.746-4.48-0.666l-3.05 0.0907-0.0894 4.46c-0.0492 2.46-0.0176 4.65 0.07 4.88 0.202 0.525 4.27 0.564 6.09 0.0585zm15 18c-0.49-0.313-0.616-30.1-0.129-30.4 0.166-0.103 1.04-0.137 1.93-0.0755l1.63 0.111v30.3h-1.09c-0.602 0-1.29 0.0705-1.52 0.157-0.234 0.0861-0.604 0.0433-0.82-0.0953zm10.9-9e-3c-0.586-0.372-0.596-29.8-0.0102-30.2 1.38-0.853 10.5-0.735 12.6 0.164 4.19 1.78 5.92 4.96 4.79 8.77-0.381 1.28-0.867 1.97-2.29 3.24-0.996 0.888-1.75 1.67-1.67 1.74 0.0761 0.0684 0.6 0.359 1.16 0.645 5.34 2.72 5.7 10.5 0.649 13.9-2.17 1.46-5.08 2.03-10.4 2.02-2.43-3e-3 -4.6-0.121-4.82-0.263zm11.5-3.81c1.36-0.689 1.89-1.19 2.46-2.31 1.4-2.77 0.536-5.74-2.11-7.3-1.37-0.804-1.76-0.875-4.85-0.875h-3.36l-0.0883 5.27c-0.0485 2.9-0.017 5.45 0.0699 5.68 0.113 0.296 1 0.412 3.15 0.412 2.63 0 3.2-0.107 4.73-0.88zm-1.85-14.2c2.55-0.709 4.35-3.26 3.97-5.62-0.465-2.86-2.61-4.04-7.1-3.9l-2.88 0.0936-0.0894 4.46c-0.0492 2.46-0.0176 4.65 0.07 4.88 0.198 0.516 4.26 0.568 6.03 0.0762zm15 18.1c-0.312-0.132-0.4-3.5-0.4-15.3v-15.1l1.27-0.214c0.697-0.118 1.56-0.121 1.92-8e-3 0.638 0.203 0.652 0.455 0.734 13.7l0.0835 13.5 12.8 0.32 0.195 3.04-7.46 4e-3c-4.1 3e-3 -7.75 0.0664-8.1 0.142-0.352 0.0758-0.82 0.0619-1.04-0.031zm21.4-7e-3c-0.51-0.206-0.592-30.4-0.0833-30.6 0.174-0.0587 3.88-0.0347 8.24 0.0533l7.92 0.16v2.88l-6.07 0.0873c-4.36 0.0628-6.14 0.198-6.32 0.48-0.293 0.461-0.349 7.95-0.065 8.69 0.167 0.434 0.974 0.506 5.7 0.506 5.99 0 6.27 0.0777 6.27 1.76 0 1.68-0.277 1.76-6.27 1.76-4.72 0-5.53 0.0718-5.7 0.506-0.285 0.743-0.228 9.51 0.0652 9.97 0.181 0.284 2.02 0.417 6.64 0.48l6.39 0.087 0.101 1.22c0.178 2.16 0.249 2.14-8.54 2.11-4.33-0.0138-8.06-0.0979-8.28-0.187zm58.6-1e-4c-0.511-0.206-0.592-30.4-0.0819-30.6 0.175-0.0587 1.04-0.0568 1.92 4e-3l1.6 0.111v6.01c0 4.71 0.0951 6.09 0.441 6.38 0.308 0.255 2.5 0.34 7.28 0.279l6.84-0.0865 0.32-12.5 4-0.191v15.2c0 11.9-0.0877 15.2-0.4 15.3-0.22 0.0798-1.12 0.0592-2-0.0458l-1.6-0.191-0.0863-6.97-0.0862-6.97-14.5 0.172-0.172 13.9h-1.09c-0.598 0-1.28 0.0606-1.51 0.135-0.234 0.074-0.606 0.062-0.826-0.0266zm130-0.0221-1.35-0.122-0.172-13.9-14.5-0.172-0.0862 6.97-0.0863 6.97-4.01 0.191 0.166-30.3h3.84l0.32 12.5 6.84 0.0865c4.78 0.0604 6.97-0.024 7.28-0.279 0.346-0.287 0.441-1.66 0.441-6.38v-6.01l1.63-0.111c0.897-0.061 1.77-0.0269 1.93 0.0755 0.182 0.113 0.294 6.13 0.283 15.2-0.0176 14.7-0.0839 15.7-0.966 15.4-0.088-0.0282-0.769-0.106-1.51-0.173zm-71.1-0.486c-0.0731-8.53 0.0359-29.5 0.154-29.6 0.358-0.358 3.39-0.666 6.74-0.684 5.54-0.0298 8.54 0.997 10.4 3.57 2.64 3.64 1.52 9.37-2.24 11.5-1.49 0.851-1.59 1.26-0.506 1.98 1.33 0.873 2.35 3.09 3.57 7.74 0.641 2.46 1.24 4.79 1.32 5.18 0.151 0.686 0.0651 0.72-1.81 0.72-2.31 0-2.09 0.347-3.57-5.51-0.537-2.13-1.17-4.24-1.41-4.69-1.1-2.11-3.19-3.02-6.57-2.85l-2.08 0.102-0.173 13h-1.91c-1.32 0-1.91-0.125-1.92-0.4zm11.4-16.5c2.26-1.04 3.36-2.75 3.36-5.21 0-1.81-0.841-3.38-2.35-4.38-1.2-0.793-1.53-0.851-4.83-0.851h-3.54l-0.0885 5.11c-0.0486 2.81-0.0173 5.29 0.07 5.52 0.262 0.683 5.79 0.539 7.38-0.192zm-612 6.79c-0.3-0.3-0.258-4.66 0.0503-5.15 0.203-0.32 38.8-0.384 192-0.32l192 0.0803v5.44l-192 0.0802c-105 0.0442-192-0.016-192-0.133zm693-0.217c-0.0907-0.236-0.122-1.5-0.07-2.8l0.095-2.37h121l0.0924 2.8 0.0925 2.8h-60.5c-50.4 0-60.5-0.0721-60.7-0.43zm-599-36.1c-8.78-9.34-11.3-11.8-11.9-11.8-0.433 0-20.1 3.02-43.8 6.72s-43.3 6.72-43.6 6.72c-0.355 0-0.46-0.111-0.274-0.289 0.167-0.159 22.7-7.73 50.1-16.8 27.4-9.1 52.8-17.6 56.6-18.9 10.4-3.57 13.6-4.34 19.5-4.68 6.26-0.36 13.5-1.26 22.9-2.84 14.6-2.47 17.4-3.22 21.3-5.82 9.13-5.99 53.1-38.3 96.9-71.2 7.32-5.5 13.6-10.2 13.9-10.4 0.531-0.332 1.87 0.29 9.96 4.64l9.35 5.03 20 18.8c11 10.3 20.3 18.8 20.6 18.9 0.499 0.0834 27.6-11.5 30.6-13 0.565-0.297 9.59-10.2 20.5-22.6l19.5-22.1 30.1-26.4c16.6-14.5 30.3-26.5 30.6-26.7 0.312-0.179 4.32 3.51 13.8 12.7 7.35 7.13 13.6 13 13.9 13 0.284 2.5e-4 5.25-2 11-4.44l10.5-4.44 87-89.3 28.5-19.9 17.4-15.7c9.55-8.66 17.6-15.8 17.8-15.8 0.444-0.0982 5.22 5.34 66 75.3l31.1 35.8 19.2 42.4c10.6 23.3 19.1 42.4 19 42.6-0.109 0.109-0.298 0.0447-0.42-0.142-0.122-0.187-3.2-4.86-6.85-10.4-3.64-5.53-14.8-22.6-24.9-37.9l-18.2-27.8-42.5-44.2c-23.4-24.3-42.9-44.5-43.4-45-0.456-0.426-0.903-0.702-0.992-0.612-0.0891 0.0892 3.36 12.1 7.67 26.8 4.31 14.6 7.75 26.8 7.66 27-0.0931 0.216-3.11 2.83-6.71 5.8-3.6 2.97-6.54 5.52-6.54 5.65 0 0.131 1.91 3.17 4.25 6.75 7.69 11.8 13.4 19.6 17.5 24.1 4.15 4.54 9.46 12.8 17.7 27.3 5.89 10.5 6.8 12.2 6.25 12.1-0.271-0.0618-12.1-11-26.3-24.3l-25.8-24.2-15.6-6.8c-8.56-3.74-15.8-6.8-16-6.8-0.227 0-0.412 0.0955-0.412 0.212 0 0.117 2.45 5.01 5.44 10.9 2.99 5.86 5.44 10.8 5.44 11 0 0.184-0.18 0.337-0.4 0.339-0.22 2e-3 -5.58-2.26-11.9-5.02l-11.5-5.02-11.8-7.31c-6.51-4.02-12-7.27-12.2-7.22-0.415 0.0919-49.3 38.2-49.5 38.7-0.179 0.29-1.97-1.86 29.3 35.1 13.3 15.7 24.3 28.9 24.6 29.2 0.23 0.328 0.278 0.597 0.108 0.597-0.171 0-11.7-8.43-25.5-18.7-13.9-10.3-25.3-18.6-25.4-18.5-0.131 0.137-0.54 3.63-0.908 7.76-0.368 4.13-0.8 7.64-0.961 7.8-0.177 0.177-7.3-4.46-18-11.7l-17.7-12-8.16-0.721c-4.49-0.396-8.33-0.809-8.53-0.917-0.202-0.108-4.84-4.56-10.3-9.9-6.11-5.96-10.1-9.66-10.4-9.6-0.634 0.132-24.5 26.1-24.5 26.7 0 0.226 13.7 13.6 30.5 29.7 33.4 32.1 33.7 32.4 33.4 32.7-0.0974 0.0974-13.1-7.47-28.8-16.8-15.8-9.35-28.8-17-29-17s-0.331 0.0636-0.331 0.141c0 0.0777 1.58 5.43 3.52 11.9s3.52 12 3.52 12.3c0 0.38-3.74 2.26-13.5 6.79-8.71 4.03-13.5 6.43-13.5 6.73 0 0.255 12.2 14 27 30.6 23.4 26.1 28.3 31.8 27 31-0.149-0.0857-21.5-12.9-47.4-28.5l-47.1-28.4-27.4 6.73c-15.1 3.7-27.7 6.73-28 6.73-0.333 0-10.5-8.88-23.2-20.2l-22.6-20.2-5.26-2.53c-3.72-1.79-5.42-2.45-5.8-2.26-1.04 0.505-62.2 56.8-62.3 57.3-0.0505 0.295 2.79 9.01 6.32 19.4 3.53 10.4 6.41 18.9 6.41 19 0 0.513-2.92-0.967-19-9.63-9.95-5.37-18.4-9.76-18.8-9.76-0.416 0-3.68 0.311-7.25 0.693l-6.5 0.695-7.4 5.55c-4.07 3.05-7.64 5.55-7.93 5.55-0.295 0-4.34-1.07-8.99-2.38l-8.45-2.38-18.6 3.07c-10.2 1.69-18.7 3.16-18.8 3.27-0.199 0.171-1.52 28.2-1.52 32.3-3.2e-4 0.894-0.142 1.36-0.412 1.36-0.226 0-5.42-5.33-11.5-11.8zm289-151c-1.51-0.744-3.21-2.77-4.36-5.19-0.984-2.08-1-2.21-0.973-6.6 0.0337-4.76 0.0208-4.7 2.32-10.9 1.24-3.33 3.91-9.23 5.1-11.2 0.516-0.875 1.62-2.52 2.45-3.65 0.834-1.13 2.08-3.03 2.77-4.21 1.52-2.6 7.97-9.22 12.5-12.8 1.72-1.37 3.12-2.62 3.12-2.78 0-0.641 2.71-1.95 5.99-2.9 2.89-0.834 3.76-1.25 5.41-2.56 1.08-0.86 2.12-1.56 2.32-1.56 0.193 0 1.7-0.432 3.35-0.961s4.64-1.32 6.64-1.76c5.76-1.26 5.73-1.24 7.93-5.57 1.04-2.04 1.99-4.22 2.11-4.83s0.524-1.62 0.887-2.24c2.35-3.99 3.14-5.82 2.94-6.86-0.211-1.13 0.617-3.19 1.61-4.02 0.391-0.325 0.472-0.733 0.321-1.63-0.148-0.877-0.0259-1.54 0.461-2.49 0.644-1.26 0.857-2.28 0.475-2.28-0.103 0-1.58 0.865-3.28 1.92-3.11 1.93-3.78 2.46-7.89 6.2-2.38 2.16-5.06 3.78-5.79 3.5-0.27-0.104-0.661 0.232-1.01 0.863-1.04 1.9-1.97 2.78-4 3.75-1.11 0.529-2.21 1.2-2.45 1.48-0.238 0.287-0.884 0.525-1.43 0.527-1.39 7e-3 -1.84 0.37-2.43 1.97-0.561 1.52-1.48 2.14-3.56 2.42-0.83 0.111-1.4 0.416-1.74 0.933-0.277 0.422-1.38 1.2-2.46 1.72-1.08 0.522-2.19 1.16-2.48 1.42-0.285 0.258-1.34 0.834-2.35 1.28-1.01 0.445-2.38 1.18-3.06 1.62-1.82 1.2-3.96 1.35-6.65 0.47-1.21-0.398-2.6-0.923-3.08-1.17-1.22-0.614-2.44-3.19-3.14-6.61-0.321-1.57-0.67-2.94-0.774-3.04-0.104-0.104-0.652 2e-3 -1.22 0.236-2.65 1.1-4.23 0.716-4.57-1.1-0.115-0.614-0.328-1.12-0.473-1.12s-0.673 0.612-1.17 1.36c-0.812 1.21-1.06 1.37-2.32 1.46-0.983 0.0706-1.78 0.394-2.63 1.07-1.42 1.13-4.31 1.71-8.43 1.71-2.26 0-2.82-0.127-4.73-1.06-2.26-1.11-5.72-4.05-6.45-5.47-0.233-0.456-0.529-1.46-0.659-2.24-0.129-0.777-0.578-2.42-0.998-3.66-0.436-1.28-0.763-2.99-0.763-3.99 0-2.07-1.12-7.1-1.77-7.95-0.441-0.574-0.483-0.566-1.11 0.204-0.361 0.44-0.884 1.34-1.16 2.01-0.346 0.827-1.05 1.57-2.24 2.36-1.03 0.683-2.06 1.71-2.54 2.54-0.448 0.764-1.67 2.18-2.72 3.15-1.09 1.01-2.16 2.35-2.49 3.14-0.797 1.86-1.43 2.36-2.42 1.91-0.952-0.434-1.18-0.195-2.08 2.21-0.449 1.2-0.925 1.9-1.45 2.14-0.43 0.196-1.08 0.937-1.44 1.65-0.421 0.826-1.03 1.45-1.69 1.72-1.25 0.524-1.71 1.04-2.95 3.37-0.605 1.13-1.2 1.83-1.6 1.89-1.69 0.249-2.11 0.474-2.79 1.47-1 1.48-4.81 4.02-7.07 4.73-2.27 0.71-5.61 0.753-7.8 0.101-3.72-1.1-7.25-6.32-8.24-12.2-0.67-3.96-0.637-5.37 0.141-6.07 0.539-0.488 0.603-0.838 0.439-2.4-0.241-2.31 0.417-4.42 2.12-6.8 0.682-0.952 1.82-2.98 2.52-4.51 2.35-5.09 6.02-11.3 7.91-13.3 6.14-6.71 13.6-13.4 14.9-13.4 0.255 0 1.29-0.639 2.29-1.42 1.01-0.78 2.36-1.59 3.02-1.8 0.654-0.211 1.78-0.725 2.5-1.14 0.719-0.416 1.67-0.757 2.12-0.757s1.3-0.205 1.9-0.455c0.855-0.357 1.37-0.38 2.4-0.105 1.17 0.311 1.41 0.273 2.19-0.345 2.69-2.12 7.64 0.746 9.12 5.27 0.768 2.36 1.61 3.55 2.25 3.16 0.213-0.132 0.743-1.04 1.18-2.02 0.434-0.981 1.19-2.29 1.68-2.92 1.54-1.96 2.78-4.53 4.02-8.33 1.32-4.05 2.23-6.09 4.63-10.4 0.884-1.58 1.85-3.64 2.15-4.58 0.299-0.933 1.02-2.26 1.61-2.94 0.585-0.683 1.28-1.85 1.54-2.58 0.26-0.738 1.19-2.51 2.07-3.94 0.876-1.43 1.82-3.27 2.1-4.09 0.575-1.69 1.25-2.4 3.14-3.31 1.3-0.626 1.33-0.677 1.34-2.28 0.0144-1.78 0.328-2.32 3.4-5.91 0.844-0.988 3.27-4.42 5.4-7.63 4.09-6.18 8.32-11.1 10.6-12.4 2.33-1.3 4.77-0.757 7.21 1.62 2.84 2.77 3.15 3.98 2.06 8.11-0.366 1.38-0.808 3.09-0.983 3.8s-0.847 2.58-1.49 4.16c-0.647 1.58-2.34 5.75-3.77 9.26-1.65 4.05-2.88 6.62-3.36 7.04-0.422 0.364-1.26 1.63-1.85 2.81-0.596 1.18-1.5 2.62-2 3.2-0.584 0.672-0.982 1.56-1.1 2.45-0.131 1.01-0.446 1.63-1.14 2.24-0.571 0.504-1.18 1.53-1.5 2.54-0.296 0.931-1.02 2.42-1.62 3.3-0.595 0.885-1.53 2.45-2.08 3.48-0.692 1.3-1.3 2-1.97 2.27-1.11 0.46-1.85 1.92-1.85 3.66 0 1.3-1.15 2.72-2.22 2.72-0.782 0-1.44 0.966-1.93 2.81-0.397 1.51-1.51 2.41-3.38 2.77-1.63 0.305-1.93 0.87-1.48 2.8 0.418 1.81 0.391 1.87-2.53 5.24-0.697 0.806-1.27 1.72-1.27 2.04s-0.429 1.21-0.954 1.98c-1.25 1.85-1.69 3.44-2.9 10.5-1.16 6.82-1.44 11.9-0.758 13.8 0.249 0.705 0.452 2.12 0.452 3.14s0.0874 2.08 0.194 2.36c0.284 0.741 1.54 0.618 2.58-0.252 0.498-0.417 1.91-1.27 3.14-1.89 2.85-1.43 5.91-3.68 7.06-5.19 0.491-0.643 1.41-1.43 2.04-1.76 0.63-0.323 1.51-0.979 1.95-1.46 0.44-0.478 1.86-1.66 3.16-2.62 2.83-2.1 4.82-4.05 5.91-5.77 0.944-1.49 1.97-2.49 4.36-4.24 2.75-2.01 4.56-1.61 3.87 0.859-0.893 3.21-0.127 3.62 2.57 1.38 2.82-2.35 10.9-7.7 13.9-9.21 5.72-2.87 11.9-4.87 15-4.87 1.73 0 2.34-0.195 5.13-1.62 3.73-1.9 6.91-2.86 9.51-2.86 2.95 0 3.64 0.669 4.38 4.26 0.419 2.03 1.06 2.61 1.78 1.58 0.675-0.964 3.45-2.64 4.37-2.64 1.96 0 3.1 1.92 3.78 6.35 0.751 4.92 0.0359 7.95-2.84 12-0.738 1.05-1.56 2.71-1.83 3.68-2.09 7.54-5.63 16.7-7.06 18.3-0.444 0.49-0.741 1.22-0.741 1.82 0 0.552-0.282 1.48-0.627 2.07s-0.795 1.85-0.999 2.82c-0.205 0.965-0.642 2.29-0.973 2.94-0.33 0.653-0.601 1.25-0.601 1.33 0 0.0767 0.724 0.604 1.61 1.17 1.86 1.19 4.52 4.06 5.3 5.71 0.469 0.987 0.485 1.34 0.131 2.75-0.643 2.56-1.11 3.2-3.12 4.27-2.47 1.32-4.18 1.59-5.57 0.88-2.29-1.16-5.71-2.39-6.18-2.21-0.269 0.103-0.489 0.51-0.489 0.904s-0.296 0.984-0.658 1.31c-0.362 0.328-1.26 1.75-1.99 3.16-1.45 2.79-2.91 4.66-3.64 4.66-0.894 0-1.99 1.54-2.64 3.72-0.774 2.59-1.38 3.56-2.33 3.7-0.488 0.0716-1.14 0.874-2.19 2.7-1.52 2.65-3.91 5.95-5 6.88-0.329 0.285-1.02 0.654-1.54 0.819-0.515 0.165-1.03 0.508-1.15 0.762-1.26 2.74-1.95 3.77-3.45 5.13-0.96 0.877-2.21 1.79-2.78 2.03-0.689 0.288-1.11 0.731-1.26 1.32-0.294 1.17-4.05 5.06-6.26 6.49-0.968 0.624-2.38 1.82-3.14 2.66-0.759 0.842-2.27 2.06-3.36 2.71-1.09 0.651-2.7 1.79-3.58 2.53-1.58 1.33-3.44 2.41-4.93 2.87-0.421 0.13-1.42 0.653-2.22 1.16-1.66 1.05-3.18 1.18-4.77 0.398zm6.93-15.4c2.56-1.03 4.23-1.93 5.39-2.9 0.923-0.779 2.67-1.96 3.89-2.63 1.42-0.778 2.94-2 4.24-3.39 1.12-1.2 3.5-3.63 5.31-5.4 1.8-1.77 3.69-3.87 4.19-4.66 0.502-0.792 1.65-2.2 2.56-3.13 0.906-0.928 1.96-2.3 2.34-3.04 1.06-2.08 3.17-5.38 4.3-6.73 0.561-0.668 1.49-2.11 2.06-3.2 0.573-1.09 1.46-2.38 1.98-2.87 1.22-1.14 1.02-1.7-0.583-1.6-0.686 0.04-1.79-0.092-2.45-0.293-1.11-0.337-1.28-0.301-2.08 0.451-1.17 1.1-2.22 1.58-5.99 2.79-1.76 0.561-3.99 1.5-4.96 2.08-0.968 0.584-2.12 1.17-2.56 1.3-0.44 0.132-1.81 0.993-3.04 1.91s-2.7 1.91-3.26 2.2c-0.56 0.288-1.1 0.798-1.21 1.13-0.433 1.36-2.09 3.24-2.87 3.24-0.532 0-0.98 0.336-1.44 1.08-0.368 0.595-1.95 2.29-3.51 3.76-2.31 2.18-2.92 2.95-3.23 4.1-0.21 0.779-0.8 2.2-1.31 3.16-0.512 0.96-0.932 2.09-0.932 2.51 0 0.421-0.225 1.3-0.501 1.95-0.748 1.78-1.79 7.16-1.57 8.07 0.232 0.937 0.729 1.6 1.2 1.6 0.183 0 2-0.67 4.04-1.49zm-71.9-60.4c0.506-0.262 1.68-1.09 2.61-1.84 0.928-0.753 2.41-1.86 3.29-2.46 0.88-0.602 2.9-2.33 4.48-3.84s5.15-4.81 7.92-7.34c3.26-2.96 5.12-4.89 5.24-5.43 0.109-0.461 1.02-1.77 2.02-2.92 1-1.14 2.01-2.44 2.24-2.88 0.227-0.44 1.45-2.17 2.72-3.84 3.35-4.42 5.38-7.58 5.13-8-0.602-0.974-1.8-0.978-4.93-0.0132-2.39 0.738-3.46 0.916-4.69 0.777-1.48-0.168-1.74-0.081-3.91 1.32-2.08 1.34-2.45 1.47-3.58 1.28-1.23-0.208-1.29-0.173-2.4 1.36-1.29 1.8-5.51 5.24-6.85 5.59-0.675 0.176-1.13 0.684-1.81 2.03-0.499 0.986-1.42 2.18-2.04 2.65-2.22 1.67-3.56 3.16-3.56 3.96 0 0.432-0.556 1.56-1.24 2.52-0.68 0.953-1.34 2.07-1.47 2.47-0.128 0.408-0.734 1.42-1.35 2.24-0.613 0.825-1.61 2.8-2.22 4.38-1.08 2.8-1.1 2.94-0.774 5.28 0.405 2.95 1.06 3.69 2.99 3.38 0.683-0.109 1.66-0.413 2.16-0.674zm85.9-1.27c1.28-0.616 2.99-1.62 3.8-2.24 1.32-1.01 1.67-1.12 3.5-1.12 1.78 0 2.19-0.121 3.24-0.96 0.664-0.528 1.4-0.96 1.63-0.96s1.04-0.639 1.8-1.42c0.754-0.781 2.13-1.8 3.06-2.26 0.926-0.462 2-1.26 2.38-1.78 0.383-0.517 0.878-0.941 1.1-0.941 0.223 0 0.856-0.561 1.41-1.25 0.594-0.739 1.57-1.46 2.39-1.78 0.977-0.373 2.02-1.24 3.52-2.91 1.17-1.31 2.98-2.91 4.03-3.55 1.11-0.685 2.36-1.81 3.01-2.71 0.609-0.847 1.65-1.82 2.32-2.16 1.94-0.987 3.42-4.25 2.15-4.73-0.271-0.104-1.22 0.189-2.11 0.65-0.942 0.489-2.14 0.839-2.87 0.839-1.39 0-5.7 1.99-7.66 3.54-0.626 0.493-1.73 1.14-2.46 1.43s-1.56 0.889-1.85 1.33c-0.603 0.92-2.79 2.01-4.06 2.02-0.637 5e-3 -1.63 0.723-3.78 2.73-1.61 1.5-3.59 3.09-4.42 3.53-2.43 1.31-5.07 3.25-5.78 4.24-0.362 0.508-1.83 1.92-3.26 3.13-2.15 1.82-2.8 2.59-3.69 4.44-1.38 2.83-1.43 4.01-0.185 4.01 0.26 0 1.52-0.504 2.8-1.12zm-23-64.1c1.92-3 3.92-5.45 4.81-5.89 0.74-0.363 1.36-1.19 3.86-5.15 1.03-1.63 4.89-7.08 6.18-8.7 0.694-0.88 1.78-2.89 2.41-4.46 0.63-1.57 1.57-3.46 2.1-4.19 0.871-1.21 0.945-1.52 0.857-3.54-0.157-3.64-0.36-3.44-5.74 5.47-1.27 2.11-2.94 5.18-3.71 6.81-1.15 2.47-1.77 3.33-3.59 5.05-1.23 1.16-2.29 2.46-2.41 2.95-0.116 0.48-0.476 1.45-0.799 2.15-0.323 0.704-0.666 1.93-0.761 2.72-0.147 1.22-0.414 1.66-1.77 2.88-1.6 1.45-3.24 4.2-3.24 5.45 0 0.948 0.473 0.543 1.81-1.55zm-159 105c-0.637-0.228-1.66-0.725-2.28-1.11-0.616-0.381-1.49-0.692-1.94-0.692-1.05 0-2-1.2-2.27-2.86-0.196-1.23-0.305-1.33-2.58-2.38-2.02-0.932-3.11-1.8-7.33-5.85-2.73-2.61-6.03-5.98-7.33-7.47-2.8-3.22-4.9-5.25-7.21-6.97-0.929-0.693-2.21-1.87-2.84-2.61-0.634-0.74-2.18-2.15-3.43-3.13-2.66-2.08-3.05-2.5-5.97-6.39-1.21-1.61-2.82-3.36-3.57-3.89-1.91-1.32-2.8-2.35-3.29-3.79-0.356-1.05-0.631-1.3-1.87-1.71-1.72-0.566-3.41-2.08-3.41-3.04 0-0.507-0.399-0.863-1.55-1.38-1.18-0.535-2.67-1.9-6.32-5.8-2.63-2.8-5.11-5.54-5.52-6.08-0.409-0.539-0.9-0.98-1.09-0.98-0.721 0-5.05 5.69-5.05 6.63 0 0.257-0.274 0.853-0.61 1.32-0.335 0.471-0.855 1.7-1.15 2.73-0.299 1.03-1.52 4.08-2.72 6.77-2.36 5.31-3 7.68-3.5 13.1-0.394 4.21-0.821 4.99-2.92 5.36-0.803 0.139-2.16 0.0969-3.17-0.0986-4.67-0.909-5.12-1.26-7.36-5.74-0.835-1.67-1.77-3.52-2.08-4.11-0.539-1.03-0.535-1.2 0.104-4.32 0.587-2.87 1.09-4.09 4.28-10.4 1.99-3.95 4.5-8.56 5.58-10.2 1.19-1.86 2.23-3.95 2.63-5.3 0.368-1.23 1.25-3.08 1.95-4.11 0.707-1.04 1.29-2.21 1.29-2.61 0-0.488-0.628-1.27-1.92-2.39-1.06-0.916-2.01-2.01-2.12-2.44-0.107-0.427-0.804-1.2-1.55-1.71-2.58-1.77-4.33-4.33-4.33-6.32 2e-3 -1.43 1.09-2.82 3.58-4.57 2.37-1.67 8.91-5.12 9.7-5.12 0.67 0 5.34-1.93 6.28-2.6 0.466-0.329 1.59-0.77 2.49-0.979 2.12-0.49 2.95-1.35 4.18-4.37 0.553-1.35 1.48-3.25 2.06-4.22 1.02-1.7 3.05-6.07 3.06-6.61 4e-3 -0.147 0.504-1.04 1.11-2 0.606-0.951 1.62-3.29 2.26-5.19 0.954-2.86 1.3-3.54 2.01-3.88 0.577-0.283 0.82-0.623 0.748-1.05-0.0591-0.345-0.155-1.42-0.213-2.39-0.0582-0.968-0.322-2.5-0.586-3.41-0.512-1.76-0.325-3.53 0.475-4.49 1.3-1.57 5.04-1.85 7.5-0.561 3.67 1.92 4.46 2.66 6.05 5.69 1.46 2.78 1.51 2.95 1.36 5.04-0.096 1.34-0.384 2.52-0.759 3.12-0.333 0.524-1 1.59-1.48 2.37-0.982 1.59-4.63 11.5-4.94 13.5-0.2 1.25-0.197 1.25 0.71 1.03 0.501-0.126 1.38-0.636 1.94-1.13 0.98-0.86 3.33-1.61 5.06-1.61 0.409 0 2.38-0.504 4.38-1.12 2-0.615 4.07-1.12 4.6-1.12 0.528-2e-3 2.52-0.427 4.44-0.945 4.33-1.17 7.62-1.54 8.69-0.969 0.623 0.333 0.862 0.334 1.26 4e-3 0.27-0.224 0.491-0.583 0.491-0.799 0-1.19 2.44-1.88 3.89-1.1 0.524 0.281 0.787 0.217 1.37-0.328 0.79-0.742 2.41-1.3 3.78-1.3 0.485 0 0.882-0.139 0.882-0.309 0-0.52 1.17-0.975 4.2-1.64 2.07-0.451 3.52-1 5.03-1.92 1.38-0.836 3.91-1.84 7.25-2.89 2.82-0.881 5.73-1.88 6.47-2.22 1.59-0.723 2.99-2.52 3.93-5.04l0.665-1.78-0.907-1.47c-0.607-0.983-1.24-1.58-1.93-1.8-0.562-0.184-1.71-0.832-2.55-1.44-0.839-0.608-2.1-1.2-2.81-1.32-1.85-0.304-5.25-1.53-6.6-2.38-0.639-0.401-1.57-0.722-2.08-0.714-0.505 8e-3 -1.9-0.433-3.11-0.98-1.2-0.548-2.57-0.996-3.04-0.998-0.468-9.6e-4 -1.25-0.211-1.74-0.467-0.645-0.336-1.46-0.412-2.95-0.273-1.64 0.153-2.23 0.08-2.9-0.359-0.656-0.43-1.49-0.542-3.77-0.51-1.61 0.0226-3.87-0.107-5.01-0.289-3.43-0.545-8.28-0.674-11.7-0.311-3.18 0.34-3.21 0.337-4.83-0.542l-1.63-0.883-1.73 0.524c-1.39 0.421-2.66 0.494-6.47 0.371-3.36-0.108-5.46-0.0187-7.2 0.307-1.35 0.253-4.97 0.639-8.05 0.857-4.67 0.331-5.74 0.501-6.46 1.03-0.619 0.457-1.11 0.571-1.76 0.412-0.498-0.121-1.66-0.252-2.59-0.291-1.54-0.0649-1.76 0.0181-2.61 0.976-0.791 0.894-1.07 1.02-1.93 0.846-0.756-0.151-1.18-0.0402-1.71 0.451-0.388 0.358-1.66 1.08-2.84 1.61-1.17 0.527-2.37 1.32-2.65 1.75-0.287 0.437-1.17 1.14-1.96 1.55-1.13 0.594-1.52 1.02-1.8 1.97-0.725 2.41-4.44 4.98-7.59 5.26-3.8 0.341-6.36-1.27-7.04-4.42-0.547-2.55-0.0122-3.86 2.68-6.56 2.84-2.85 4.92-3.88 11.2-5.56 2.64-0.704 5.72-1.66 6.84-2.11 3.04-1.25 6.64-1.91 7.88-1.46 1.45 0.526 2.1 0.451 2.94-0.341 0.516-0.485 1.12-0.692 1.94-0.669 0.656 0.0191 2.42-0.289 3.91-0.685 2-0.529 2.99-0.646 3.76-0.443 0.753 0.2 1.3 0.142 1.98-0.212 0.52-0.269 1.42-0.489 2.01-0.489 0.584 0 2.1-0.288 3.37-0.64 1.27-0.352 3.14-0.641 4.15-0.643 1.01-1e-3 3.87-0.424 6.35-0.939 2.48-0.515 6.25-1.1 8.39-1.29 3.35-0.308 4.01-0.289 4.83 0.139 1.22 0.63 2.05 0.622 5.29-0.0457 2.47-0.508 2.78-0.508 5.1 1e-3 2.21 0.486 2.56 0.493 3.4 0.0611 1.27-0.658 2.82-0.603 4.23 0.149 0.953 0.511 1.36 0.567 2.13 0.298 1.02-0.356 10.6-0.22 11.2 0.16 0.195 0.12 1.55 0.346 3 0.502 3.49 0.373 4.92 0.715 6.61 1.59 0.897 0.461 1.76 0.671 2.38 0.579 0.715-0.105 1.59 0.188 3.23 1.09 1.24 0.676 2.66 1.23 3.15 1.23 1.32 7e-3 3.35 1.16 3.89 2.21 0.262 0.506 1.1 1.32 1.87 1.8 1.25 0.793 2.79 2.91 2.79 3.84 0 0.183 0.719 1.04 1.6 1.91 1.36 1.34 1.6 1.76 1.6 2.79 0 0.667 0.288 1.75 0.64 2.41 0.803 1.5 0.849 4.61 0.133 9.12-0.585 3.68-1.59 5.71-3.45 6.98-0.654 0.444-1.55 1.42-2 2.16-0.507 0.85-1.31 1.61-2.15 2.04-0.737 0.376-1.98 1.17-2.76 1.76-0.779 0.595-1.79 1.17-2.24 1.27-0.453 0.105-3.21 0.894-6.12 1.75-2.91 0.858-5.7 1.56-6.19 1.56-0.555 0-1.38 0.422-2.2 1.12-1.34 1.14-2.89 1.75-4.48 1.76-0.487 9.6e-4 -2.25 0.298-3.92 0.66-1.67 0.362-3.18 0.569-3.36 0.459-0.373-0.231-4.86 0.608-7.2 1.34-0.88 0.278-2.54 0.915-3.69 1.42-1.84 0.802-2.24 0.87-3.33 0.57-1.01-0.279-1.46-0.239-2.47 0.217-1.01 0.458-1.39 0.489-2.07 0.178-0.721-0.329-0.969-0.279-1.84 0.368-1.39 1.03-3.48 1.59-5.1 1.35-0.999-0.149-1.75-0.0269-2.92 0.476-1.04 0.448-1.89 0.608-2.5 0.474-1.01-0.223-1.94 0.0641-5 1.56-1.99 0.969-2.06 0.979-2.99 0.446-1.36-0.783-1.75-0.698-3.39 0.75-1.41 1.24-1.54 1.29-3.09 1.1-1.32-0.161-1.95-0.049-3.42 0.605-2.02 0.9-2.83 1.85-3.97 4.67-0.424 1.04-1.21 2.58-1.74 3.42-0.531 0.837-0.965 1.66-0.965 1.82 0 0.635-2.58 5.57-3.21 6.15-0.365 0.33-1.46 2.09-2.44 3.91-2.11 3.93-2.09 4.34 0.294 6.11 0.922 0.684 3.84 3.08 6.48 5.32 2.64 2.24 5.34 4.44 6 4.89 0.925 0.622 1.2 1.02 1.2 1.73 0 1.06 0.723 1.5 1.45 0.896 0.403-0.335 0.742-0.221 2 0.67 2.6 1.85 5.21 4.27 5.4 5.02 0.11 0.434 0.426 0.72 0.796 0.72 0.94 0 4.06 1.68 6.2 3.34 1.06 0.82 3.72 3.18 5.92 5.25 2.29 2.16 7.35 6.27 11.8 9.63 11.7 8.72 17 13.2 19.1 16.1 0.74 1.01 1.74 1.88 2.74 2.38 1.71 0.866 5.9 4.66 7.36 6.66 0.768 1.05 0.91 1.56 0.91 3.23v1.99l-2.16 1.9c-3.31 2.92-3.45 2.99-5.99 2.97-1.24-8e-3 -2.77-0.2-3.41-0.428zm-78.3-84.7c0.899-1.07 2.86-5.88 2.71-6.65-0.144-0.737-1.23-0.764-2.37-0.0587-0.56 0.346-1.58 0.622-2.29 0.622-0.918 0-1.73 0.297-2.84 1.04-2.2 1.47-2.18 2.09 0.106 3.83 3.29 2.51 3.54 2.58 4.68 1.21zm-276 58.3c-3.85-1.35-6.95-4.79-8.1-9.01-0.934-3.42-0.956-5.7-0.095-9.92 0.449-2.2 0.949-4.35 1.11-4.77 0.162-0.427 0.428-2.16 0.591-3.84 0.382-3.96 0.942-5.52 3.23-9 2.73-4.15 3.17-5.15 3.17-7.09 6.4e-4 -1.76 0.46-2.89 1.95-4.79 0.456-0.584 1.51-2.72 2.33-4.74 2.04-4.98 2.67-6.02 4.5-7.41 2.05-1.55 2.25-1.96 2.15-4.44-0.0773-1.96-0.0104-2.18 1.04-3.56 0.617-0.808 1.63-2.39 2.25-3.51 0.633-1.15 1.81-2.62 2.68-3.37 1.19-1.02 1.72-1.79 2.27-3.28 0.748-2.05 1.58-3.36 6.42-10.1 3.81-5.32 4.65-6.19 6.33-6.61 0.744-0.187 1.51-0.524 1.69-0.748 0.186-0.224 0.554-1.54 0.818-2.92 0.463-2.42 0.548-2.58 2.44-4.44 1.08-1.06 2.33-2.51 2.79-3.21 1.1-1.69 4.44-5.69 5.02-6.02 0.253-0.142 0.895-1.12 1.43-2.17 0.922-1.83 1.89-2.92 5.78-6.53 2.31-2.15 5.51-5.84 6.17-7.13 0.299-0.578 1.25-1.49 2.13-2.02 1.49-0.917 1.95-1.62 1.31-2.01-0.153-0.0944-1.38 0.0398-2.73 0.298-1.35 0.258-3.42 0.45-4.6 0.425-1.39-0.0292-2.65 0.154-3.59 0.52-0.792 0.311-2.02 0.635-2.72 0.722-0.704 0.0862-1.58 0.433-1.95 0.77-0.551 0.505-1.09 0.603-3.07 0.552-1.93-0.0499-2.62 0.0666-3.49 0.595-0.598 0.361-2.53 0.942-4.29 1.29-1.76 0.349-4.68 1.23-6.49 1.96-2.9 1.17-3.49 1.3-4.97 1.13-1.63-0.192-1.74-0.154-3.19 1.1-1.46 1.26-1.85 1.4-5.02 1.8-0.792 0.1-2.59 0.682-4 1.29-1.41 0.612-3.07 1.11-3.7 1.11-1.32 0-4.74 1.67-8.42 4.11-0.922 0.613-1.59 0.805-2.65 0.759-1.24-0.0539-1.59 0.0943-2.76 1.16-0.74 0.672-2.45 1.83-3.81 2.57-2.04 1.12-2.64 1.64-3.52 3.06-0.582 0.942-1.95 2.66-3.05 3.83-1.67 1.78-2.16 2.12-3.04 2.11-2.28-3e-3 -3.96-1.86-4.31-4.75-0.16-1.35-0.0027-1.9 1.43-4.92 2.52-5.35 3.73-6.54 7.91-7.85 2.71-0.849 8.73-3.56 10.2-4.57 0.996-0.706 1.45-0.829 2.6-0.699 1.18 0.133 1.86-0.0673 4.45-1.32 1.68-0.813 3.15-1.62 3.25-1.79 0.106-0.172 1.41-0.683 2.89-1.14 1.48-0.452 2.78-0.96 2.88-1.13 0.377-0.611 2.22-1.33 8.16-3.19 4.66-1.46 6.45-1.88 7.74-1.83 1.38 0.0576 1.91-0.0878 2.96-0.804 0.701-0.481 1.5-0.874 1.77-0.874 0.274 0 1.36-0.239 2.41-0.531 1.05-0.292 2.28-0.556 2.74-0.587 0.46-0.0309 1.36-0.377 1.99-0.768 0.894-0.553 1.57-0.697 3-0.644 1.02 0.0376 2.63-0.0978 3.58-0.301 0.948-0.203 2.42-0.369 3.27-0.369s2.02-0.2 2.6-0.445c1.16-0.489 3.76-1.05 6.97-1.49 1.14-0.158 2.8-0.438 3.68-0.623s1.98-0.253 2.45-0.15c0.47 0.103 1.62-0.0579 2.56-0.356 1.28-0.407 3.06-0.56 7.15-0.611 3.28-0.0409 5.81-0.217 6.36-0.445 0.507-0.208 1.23-0.281 1.6-0.163 1.89 0.601 11.3 0.0499 14-0.824 0.524-0.166 1.34-0.156 2 0.0267 0.794 0.219 1.32 0.194 1.84-0.0888 0.399-0.218 1.59-0.419 2.64-0.447 1.06-0.028 4.5-0.214 7.66-0.414 4.17-0.264 6.1-0.267 7.04-0.0137 1.62 0.435 3.56 2.4 4 4.06 0.488 1.81 0.512 4.79 0.055 6.9l-0.405 1.88 0.961 1c1.2 1.25 2.47 3.75 2.92 5.76 0.291 1.3 0.239 1.91-0.329 3.93-0.37 1.32-1.02 4.43-1.44 6.9-0.698 4.11-0.851 4.6-1.76 5.53-0.825 0.851-1.04 1.4-1.28 3.23-0.434 3.4-1.37 5.88-3.4 8.96-0.657 0.998-1.21 2.37-1.43 3.52-0.407 2.2-0.658 2.73-2.1 4.43-0.594 0.697-1.45 2.07-1.91 3.04-1.01 2.16-9.65 14.6-11.5 16.7-1.34 1.45-1.38 1.47-3.08 1.32-1.52-0.126-1.78-0.0571-2.24 0.596-0.35 0.5-0.46 1.11-0.339 1.88 0.165 1.05-0.12 1.56-3.79 6.78-3.21 4.57-4.16 6.19-4.99 8.48-0.561 1.56-1.66 3.9-2.45 5.21-0.785 1.3-1.81 3.39-2.28 4.64-0.468 1.25-1.26 2.95-1.76 3.78-1.09 1.81-2.52 5.14-2.52 5.86 0 1.07 1.17 0.231 3.2-2.29 3.41-4.23 8.06-8.62 9.66-9.13 1.03-0.326 1.49-0.689 1.82-1.43 0.311-0.706 0.88-1.18 1.97-1.64 1.09-0.46 1.77-1.03 2.37-1.97 0.458-0.726 1.05-1.32 1.3-1.32s1.52-1.04 2.8-2.32c3.41-3.39 9.48-6.74 14.7-8.09 5.02-1.31 12 0.173 14.5 3.05 1.48 1.75 1.64 2.97 1.05 7.65-0.644 5.08-1.65 9.43-3.56 15.4-1.4 4.38-1.44 4.62-1.36 8.09 0.0743 3.18 0.149 3.59 0.672 3.69 0.324 0.0621 0.9-0.171 1.28-0.519 0.38-0.347 1.18-0.876 1.77-1.18 0.592-0.299 1.94-1.47 3-2.6 1.09-1.16 2.52-2.32 3.3-2.66 0.763-0.337 2.92-2.06 4.83-3.86 1.9-1.79 4.75-4.12 6.34-5.19 1.59-1.06 3.44-2.43 4.11-3.03 2.06-1.85 3.44-2.15 4.25-0.914 0.485 0.74 0.477 0.942-0.119 2.96-0.352 1.19-0.738 2.74-0.858 3.45-0.339 1.98-3.23 7.75-4.01 8-0.362 0.115-1.45 0.904-2.42 1.75-0.97 0.849-2.52 1.85-3.45 2.23-1.09 0.442-1.88 1.01-2.24 1.62-1.01 1.7-1.44 1.97-2.89 1.75-1.51-0.226-2.07 0.184-2.88 2.1-0.258 0.61-1.12 1.75-1.92 2.53-1.12 1.09-1.77 1.46-2.82 1.6-1.22 0.162-1.41 0.306-1.72 1.28-0.52 1.61-5.55 4.75-8.35 5.22-1.93 0.323-2.02 0.305-3.55-0.673-0.861-0.552-1.71-1-1.89-1-0.868 0-2.18-1.62-3.33-4.12-1.1-2.37-1.29-3.14-1.41-5.46-0.0758-1.58 7e-3 -2.87 0.198-3.1 0.214-0.257 0.225-0.77 0.0326-1.47-0.223-0.808-0.0412-2.56 0.741-7.14 0.57-3.34 1.27-6.98 1.57-8.08 0.681-2.58 0.596-7.72-0.134-8.07-0.264-0.126-0.934-0.465-1.49-0.754-1.68-0.872-2.26-0.69-3.32 1.04-1.07 1.75-1.51 2.02-2.81 1.75-0.768-0.154-1.06 0.0234-2.06 1.24-0.73 0.891-1.85 1.75-3 2.29-1.01 0.476-2.34 1.29-2.97 1.8-0.626 0.516-1.27 0.938-1.43 0.938-0.531 0-4.68 3.25-5.35 4.19-0.364 0.512-0.864 0.93-1.11 0.93-0.247 0-0.761 0.423-1.14 0.939-0.382 0.517-1.31 1.27-2.07 1.67-0.756 0.401-1.52 1.04-1.69 1.42-0.174 0.381-0.865 0.962-1.54 1.29-0.765 0.374-1.48 1.08-1.92 1.88-1.04 1.9-1.25 2.06-2.46 1.87-1.62-0.264-2.33 0.292-2.91 2.28-0.453 1.56-0.994 2.25-4.94 6.32-2.7 2.79-4.75 5.2-5.24 6.17-0.889 1.75-1.84 2.73-4.13 4.27-2.74 1.84-4.17 1.14-6.03-2.97-0.929-2.05-0.975-2.31-0.623-3.57 0.209-0.745 0.285-1.65 0.17-2.01-0.323-1.02 2.24-8.32 3.86-11 1.88-3.12 3.29-7.61 2.39-7.61-0.163 0-1.18 0.528-2.27 1.17-2.21 1.32-3.68 1.5-4.39 0.56-0.766-1.02-0.401-5.32 0.646-7.6 1.1-2.41 2.65-4.34 3.89-4.88 0.539-0.231 3.82-3.22 7.28-6.65 5.91-5.84 6.39-6.41 7.71-9.06 0.775-1.55 1.66-3.5 1.97-4.33 0.311-0.827 0.836-1.75 1.17-2.05 0.331-0.3 0.603-0.744 0.603-0.986s0.504-0.945 1.12-1.56c0.68-0.68 1.12-1.43 1.12-1.92 0-0.917 1.35-4.02 2.94-6.75 0.601-1.03 2-3.82 3.12-6.2s2.6-5.54 3.31-7.04 1.97-4.34 2.81-6.31c1.81-4.25 3.27-6.94 5.24-9.62 0.795-1.08 1.97-3.01 2.62-4.3 0.646-1.28 1.5-2.77 1.9-3.29s1.67-2.57 2.84-4.55c1.16-1.97 2.82-4.5 3.68-5.62s1.88-2.68 2.28-3.46c0.395-0.781 0.984-1.8 1.31-2.26 0.736-1.04 0.54-1.24-1.22-1.24-1.62 0-3.16-0.693-3.43-1.55-0.314-0.989-1.49-1.81-4.18-2.92l-2.56-1.05-5.28 0.366c-2.9 0.201-8.09 0.33-11.5 0.286-7.12-0.0903-12.2 0.383-13.2 1.22-0.83 0.752-0.756 2.04 0.233 4.06l0.837 1.71-1.03 1.82c-0.774 1.37-1.94 2.58-4.71 4.91-2.03 1.7-4.2 3.8-4.82 4.67-0.624 0.869-1.69 1.93-2.36 2.35-1.14 0.718-4.11 4.12-4.11 4.71-1.1e-4 0.142-0.27 0.862-0.599 1.6-0.329 0.738-0.653 1.52-0.72 1.73-0.254 0.804-3.72 5.12-5.4 6.73-1.21 1.16-2.02 1.68-2.6 1.68-1.29 1.9e-4 -1.64 0.668-1.39 2.66 0.139 1.11 0.0946 1.81-0.123 1.95-0.187 0.116-1.12 1.54-2.08 3.16-0.955 1.62-2.06 3.24-2.45 3.59-0.849 0.765-2.99 4.93-3.49 6.78-0.422 1.57-1.9 3.8-4.83 7.3-2.7 3.23-3.12 4.05-3.53 6.92-0.358 2.53-1.87 5.73-3.52 7.47-0.702 0.737-0.995 1.47-1.26 3.14-0.191 1.2-0.641 2.93-1 3.84-0.359 0.912-1.43 3.73-2.39 6.27-0.955 2.54-2.01 5.06-2.33 5.6-0.329 0.544-1.18 1.94-1.9 3.11-0.88 1.43-1.42 2.78-1.66 4.16-0.199 1.12-0.702 3.34-1.12 4.92-0.416 1.58-0.849 3.67-0.961 4.64-0.112 0.968-0.787 3.41-1.5 5.42l-1.3 3.66 0.676 1.39c0.797 1.64 0.86 3.33 0.196 5.22-0.264 0.748-0.481 1.81-0.481 2.36-0.0016 1.29-1 2.92-2.14 3.5-1.57 0.794-5.14 0.93-7.04 0.268zm175-4.37c-0.981-0.825-0.988-0.826-2.72-0.323-2.87 0.836-4.65 0.766-6.97-0.272-4.01-1.8-4.06-1.83-4.97-3.57-0.551-1.05-1.18-1.78-1.68-1.96-0.669-0.235-1.02-0.895-2.1-3.96-1.18-3.34-1.4-3.73-2.39-4.22-1.81-0.905-2.03-1.29-1.99-3.44 0.0573-2.53 0.652-3.9 2.58-5.94 1-1.06 1.69-2.13 1.91-2.98 0.189-0.729 0.501-1.94 0.691-2.69 0.589-2.31 5.61-11.6 6.87-12.7 0.621-0.545 1.32-0.991 1.55-0.991 0.888 0 2.04-1.29 2.39-2.68 0.388-1.54 1.46-3.02 2.65-3.66 0.414-0.222 1.08-0.886 1.49-1.48 0.814-1.19 3.07-2.5 6.94-4.02 1.41-0.554 3.09-1.43 3.75-1.95 1.01-0.803 1.37-0.915 2.42-0.747 0.825 0.132 2.13-0.045 3.93-0.535 3.42-0.93 8.76-1.02 11.7-0.195 1.06 0.3 2.47 0.626 3.15 0.725 1.35 0.197 3.75 2.15 4.56 3.71 0.679 1.31 0.551 3.41-0.32 5.29-0.903 1.94-3.98 5.14-6.17 6.41-0.847 0.492-2.92 1.93-4.6 3.2-2.83 2.13-3.16 2.29-4.24 2.12-1.39-0.225-2.01 0.228-3.25 2.34-0.663 1.13-0.989 1.39-1.74 1.39-1.42 0-1.83 0.262-3.04 1.95-0.62 0.863-1.34 1.57-1.6 1.57s-1.2 0.647-2.09 1.44c-2.29 2.04-3.09 2.5-4.25 2.47-1.29-0.0366-1.76 0.367-2.02 1.71-0.166 0.885-0.508 1.25-1.92 2.05-0.947 0.534-1.94 0.972-2.2 0.972s-0.702 0.343-0.976 0.761c-0.292 0.446-1.28 1.05-2.39 1.45-2.02 0.737-2.01 0.718-2.58 3.72-0.53 2.8-0.349 3.68 0.937 4.54 0.881 0.592 1.52 0.729 3.36 0.725 3.33-8e-3 7.78-0.782 9.79-1.7 1-0.457 2.73-0.901 4-1.03 2-0.202 2.38-0.357 3.57-1.44 1.38-1.27 3.59-2.54 4.4-2.54 0.258 0 1.32-0.864 2.36-1.92 1.6-1.63 2.06-1.92 3.02-1.92 0.954 0 1.32-0.226 2.3-1.42 0.851-1.04 1.65-1.6 3-2.1 1.01-0.376 2.27-1.09 2.8-1.58 0.528-0.495 1.53-1.08 2.23-1.31s1.99-1.08 2.88-1.9c3.68-3.41 5.18-4.19 5.52-2.89 0.283 1.08 0.645 0.71 0.645-0.665 0-1.56 0.173-1.75 3.44-3.81 1.95-1.23 2.69-1.91 3.19-2.92 0.815-1.65 3.34-3.22 4.25-2.65 0.482 0.303 0.566 0.867 0.578 3.84 0.0129 3.38-0.0183 3.54-1.04 5.25-0.579 0.971-1.06 1.98-1.06 2.24-0.0117 0.792-1.22 3.19-1.6 3.19-0.199 0-0.962 0.486-1.7 1.08-0.734 0.594-1.77 1.3-2.29 1.57-0.528 0.268-1.46 1.11-2.07 1.87-2.14 2.66-5.21 5.73-5.75 5.73-0.295 0-0.7-0.163-0.9-0.362-0.586-0.586-1.32-0.0718-1.88 1.3-0.707 1.77-5.07 4.73-7.19 4.88-1.35 0.0962-1.46 0.181-2.15 1.62-0.849 1.78-1.58 2.32-3.76 2.81-0.88 0.196-2.82 1.01-4.32 1.81-3.04 1.63-12.2 5.01-14.4 5.35-1.3 0.194-1.6 0.121-2.46-0.606zm0.686-33.3c2-1 5.83-3.68 9.02-6.29 0.704-0.579 2.13-1.68 3.17-2.44 1.04-0.762 2.77-2.25 3.84-3.3 1.07-1.05 2.39-2.1 2.94-2.33 0.542-0.231 1.17-0.644 1.4-0.918 1-1.21-1.46-1.96-3.18-0.978-0.44 0.252-1.43 0.462-2.2 0.469-0.8 6e-3 -1.83 0.274-2.4 0.622-0.549 0.336-1.59 0.768-2.31 0.959s-2.24 1.05-3.38 1.92-2.86 2.08-3.83 2.69c-2.48 1.59-3.67 3.08-5.48 6.86-2.23 4.66-1.98 4.94 2.43 2.74zm211 33.2c-2.95-1.93-4.37-4.26-4.02-6.61 0.136-0.91 0-1.88-0.452-3.19-0.766-2.23-0.864-5.89-0.208-7.75 0.242-0.687 0.692-2.54 0.999-4.12 0.307-1.58 0.818-3.3 1.14-3.83 0.318-0.528 0.866-2 1.22-3.27s1-2.79 1.45-3.37 0.962-1.75 1.15-2.61c0.192-0.855 0.704-2.16 1.14-2.9 0.909-1.55 0.981-2.17 0.316-2.73-0.384-0.319-0.749-0.232-1.93 0.463-1.09 0.64-1.7 0.804-2.41 0.649-0.975-0.214-1.28-0.0487-4.02 2.21-1 0.829-1.24 0.893-2.19 0.603-1.31-0.403-1.99-0.0587-2.26 1.15-0.307 1.4-1.76 2.55-4.2 3.33-2.11 0.677-2.25 0.788-3.12 2.41-2.32 4.33-6.93 4.82-6.93 0.74 0-1.93 0.67-5.88 1.09-6.41 0.194-0.247 0.83-0.649 1.41-0.893 1.52-0.636 3.51-2.14 4.77-3.61 0.597-0.698 2.29-2.08 3.77-3.07 1.47-0.992 3.42-2.44 4.33-3.21 1.57-1.34 2.4-1.72 3.56-1.65 0.524 0.0329 2.09-1.16 5.19-3.95 0.903-0.813 2.15-1.73 2.76-2.05s1.69-1.05 2.38-1.65c1.57-1.34 3.22-1.82 4.95-1.43 3.96 0.889 8.35 5.42 8.35 8.62 0 1.57-2.41 12.4-3.26 14.7-0.354 0.946-1.06 2.2-1.57 2.78-0.51 0.581-0.927 1.28-0.927 1.55 0 0.271-0.373 0.937-0.83 1.48-0.739 0.878-0.806 1.16-0.611 2.58 0.184 1.34 0.112 1.73-0.45 2.44-0.557 0.708-0.669 1.3-0.669 3.51 0 1.46-0.144 2.75-0.32 2.86-0.819 0.506-0.135 0.8 1.86 0.8 2.03 0 2.25-0.0701 3.12-0.999 0.517-0.549 2.6-1.81 4.62-2.81 3.44-1.69 8.59-5.39 18.5-13.3 2.23-1.78 3.54-1.87 4.26-0.291 0.482 1.06-0.0803 3.22-1.9 7.32-1.59 3.57-3.63 6.04-7.06 8.55-1.46 1.07-3.7 2.9-4.96 4.07-1.26 1.17-3.56 3.04-5.1 4.15-1.54 1.11-2.8 2.15-2.8 2.31 0 0.162-1.12 0.872-2.48 1.58-1.36 0.706-3.26 1.72-4.2 2.24s-2.1 0.96-2.56 0.961c-0.777 2e-3 -1.3 0.263-3.28 1.65-0.482 0.338-1.75 0.609-3.48 0.743-2.63 0.203-2.77 0.18-4.16-0.73zm243 0.0529-0.856-0.856-2.02 0.567c-2.93 0.822-4.67 0.767-6.54-0.208-0.864-0.451-2.02-0.917-2.57-1.04-1.18-0.256-2.03-1.11-2.97-2.98-0.375-0.748-0.873-1.36-1.11-1.36-0.76 0-1.38-1.07-2.52-4.32-0.949-2.71-1.28-3.31-2.2-3.9-2.24-1.44-2.31-1.57-2.11-3.96 0.212-2.53 1.08-4.44 2.46-5.42 1.22-0.867 1.67-1.74 2.54-4.95 0.427-1.57 1.74-4.55 3.4-7.73 2.77-5.3 3.78-6.54 5.71-7.03 0.999-0.251 1.63-1.11 1.96-2.7 0.173-0.825 0.967-1.85 3.02-3.89 3.04-3.02 3.29-3.18 7.53-4.89 1.58-0.638 3.48-1.59 4.22-2.12 1.14-0.813 1.53-0.931 2.59-0.762 0.841 0.135 2.02-0.0238 3.62-0.486 3.32-0.959 8.67-1.24 10.3-0.539 0.685 0.288 2.05 0.615 3.04 0.726 3.08 0.347 5.23 1.9 6.35 4.58 1.28 3.05-1.93 8.26-6.96 11.3-0.969 0.582-2.26 1.45-2.88 1.93-3.96 3.08-4.53 3.4-5.64 3.22-1.25-0.204-1.89 0.248-3.37 2.39-0.78 1.13-1.11 1.36-1.98 1.36-1.08 0-2.28 0.979-3.06 2.48-0.204 0.396-0.845 0.919-1.42 1.16-0.579 0.242-1.81 1.12-2.74 1.94-1.91 1.7-2.83 2.14-3.87 1.87-0.841-0.22-1.59 0.587-1.59 1.71 0 0.518-0.485 1.04-1.71 1.86-0.942 0.625-1.92 1.14-2.18 1.14-0.257 0-0.866 0.416-1.35 0.925-0.488 0.509-1.34 1.02-1.88 1.12-1.97 0.395-2.34 0.889-2.94 3.97-0.644 3.31-0.457 4 1.28 4.73 2.19 0.915 9.81 0.176 12.9-1.25 0.994-0.453 2.74-0.903 4-1.03 2.09-0.214 2.35-0.328 3.91-1.75 0.918-0.837 2.33-1.75 3.14-2.02 0.958-0.326 2.1-1.12 3.25-2.27 1.47-1.47 1.96-1.77 2.88-1.77 0.808 0 1.3-0.229 1.81-0.841 1.45-1.76 2.29-2.39 3.6-2.72 0.741-0.186 1.86-0.822 2.49-1.41 0.626-0.591 1.69-1.22 2.37-1.41 0.678-0.183 1.66-0.783 2.18-1.33 1.43-1.52 4.97-4.13 5.6-4.13 0.305 0 0.664 0.324 0.797 0.72 0.226 0.671 0.251 0.654 0.365-0.24 0.272-2.13 0.421-2.31 3.32-4.15 2.37-1.5 2.99-2.07 3.4-3.07 0.356-0.891 0.898-1.46 1.94-2.05 1.78-0.995 2.18-1.01 2.79-0.0902 0.357 0.545 0.402 1.03 0.186 1.99-0.157 0.697-0.209 2.14-0.116 3.2 0.152 1.72 0.0806 2.05-0.649 3.02-0.45 0.599-1.13 2.01-1.5 3.14-0.561 1.69-0.897 2.18-1.9 2.82-0.672 0.424-1.32 0.923-1.43 1.11-0.115 0.186-0.764 0.621-1.44 0.967-0.719 0.367-2.6 2.18-4.51 4.34-3.42 3.87-3.3 3.8-5.32 3.17-0.621-0.193-0.798-0.031-1.33 1.22-0.635 1.48-0.764 1.6-4.03 3.76-1.36 0.9-2.26 1.27-3.1 1.27-0.89 6.4e-4 -1.34 0.207-1.84 0.844-0.365 0.464-0.663 1.02-0.663 1.24 0 0.835-1.66 2.05-3.1 2.27-0.792 0.119-2.95 0.994-4.8 1.94-3.69 1.9-12.2 5.06-14.5 5.37-1.27 0.172-1.54 0.094-2.3-0.662zm0.376-33.2c2.56-1.29 6.65-4.12 9.92-6.88 0.792-0.667 2.45-1.96 3.68-2.87 1.23-0.91 2.64-2.16 3.14-2.79 0.493-0.623 1.62-1.5 2.5-1.95 1.29-0.652 1.58-0.953 1.5-1.52-0.0795-0.559-0.345-0.725-1.29-0.803-0.653-0.0542-1.52 0.0827-1.92 0.304-0.403 0.221-1.45 0.499-2.33 0.618-2.12 0.285-6.6 2.23-8.27 3.59-0.734 0.6-2.36 1.75-3.62 2.56-2.59 1.66-3.69 3.05-5.58 7.1-1.24 2.65-1.44 3.39-1.03 3.79 0.324 0.324 0.39 0.3 3.31-1.17zm-218-49.5c-1.85-1.34-3.59-3.5-3.86-4.81-0.133-0.631-0.243-2.61-0.245-4.4-5e-3 -4.23 0.321-4.73 3.86-5.92 3.82-1.28 4.43-1.22 6.26 0.676 1.51 1.57 2.68 3.49 3.18 5.22 0.225 0.785-0.0211 2.64-0.827 6.21-0.248 1.1-1.77 2.7-3.18 3.34-1.95 0.884-3.67 0.779-5.18-0.316z" fill="#b60000" stroke-width=".32"/>
</svg>
